<svg width="16" height="23" viewBox="0 0 16 23" fill="none" xmlns="http://www.w3.org/2000/svg">
<path d="M8.73511 0.047012C9.20902 0.329084 9.25211 0.893229 9.38136 1.45737C9.42444 1.22231 9.46752 1.03426 9.51061 0.846217C9.63986 0.517132 9.89836 0.329084 10.1999 0.376096C10.3723 0.423108 10.5446 0.47012 10.7169 0.564144C11.0185 0.752193 11.1478 1.03426 11.1478 1.41036C11.2339 1.41036 11.3632 1.45737 11.4493 1.45737C11.8371 1.5514 12.0094 1.88048 11.8371 2.25658C11.6648 2.67969 11.4924 3.10279 11.3201 3.5259C11.277 3.61993 11.277 3.71395 11.3632 3.80798C11.6217 4.2781 11.9663 4.46614 12.4403 4.41913C13.0865 4.37212 13.7328 4.51316 14.2928 4.88925C14.6375 5.12431 14.6806 5.21834 14.5083 5.64144C14.379 5.92352 14.2498 6.20559 14.1636 6.44065C14.0343 6.72272 13.9482 6.76973 13.6897 6.72272C13.6035 6.72272 13.5173 6.72272 13.4312 6.67571C13.4312 6.72272 13.4312 6.72272 13.4312 6.72272C14.0343 7.89802 14.4221 9.12034 14.6806 10.4367C14.8098 11.1889 15.0683 11.9411 15.1976 12.7403C15.7577 15.8901 15.2407 18.8048 13.6035 21.4845C13.0003 22.4247 12.0094 22.7538 11.0185 22.3777C9.42444 21.7196 7.91653 20.9204 6.58095 19.7451C6.23629 19.463 5.9347 19.0869 5.59004 18.7578C5.54696 18.7108 5.50387 18.6638 5.50387 18.6168C5.41771 18.8048 5.37462 18.9929 5.28846 19.1339C5.20229 19.2279 5.02996 19.3219 4.85763 19.3219C4.51296 19.369 4.12521 19.3219 3.78055 19.3219C3.30663 19.3219 3.1343 19.1339 3.09122 18.6168C3.04813 17.8646 3.00505 17.0654 2.96197 16.2662C2.91888 15.514 2.91888 14.7618 2.91888 14.0566C2.91888 13.8686 2.8758 13.6335 2.83272 13.4454C2.70347 12.8343 2.53114 12.2231 2.40189 11.565C2.3588 11.4239 2.31572 11.3769 2.18647 11.3299C1.75564 11.2359 1.32481 11.2829 0.893975 11.4239C0.506227 11.518 0.0753955 11.3299 0.0323124 10.8598C-0.0107708 10.5777 -0.0107708 10.2486 0.0323124 9.96655C0.0753955 9.68448 0.247728 9.49643 0.54931 9.40241C0.807809 9.3554 1.06631 9.30838 1.36789 9.26137C1.06631 9.07332 0.807809 8.88527 0.592393 8.74424C0.506227 8.69723 0.376978 8.6032 0.333894 8.50918C0.161562 8.22711 0.161562 7.94503 0.290811 7.66296C0.463144 7.33388 0.592393 7.00479 1.02322 7.00479C1.15247 7.00479 1.23864 7.05181 1.36789 7.09882C1.8418 7.28687 2.27264 7.4279 2.74655 7.61595C2.78963 7.61595 2.91888 7.56894 2.96197 7.56894C3.00505 7.52193 3.04813 7.47491 3.09122 7.4279C3.34972 7.23985 3.3928 7.00479 3.30663 6.72272C3.26355 6.48766 3.22047 6.2526 3.17738 5.97053C2.91888 6.01754 2.70347 6.01754 2.44497 6.06455C1.97105 6.15858 1.71256 6.01754 1.58331 5.50041C1.49714 5.26535 1.45406 4.98328 1.36789 4.74822C1.28172 4.37212 1.36789 4.04304 1.71256 3.902C2.1003 3.71395 2.53114 3.57291 2.96197 3.38487C2.91888 3.14981 2.91888 2.82072 2.83272 2.53865C2.74655 2.06853 2.6173 1.59841 2.44497 1.12829C2.3588 0.846217 2.44497 0.517132 2.70347 0.376096C2.96197 0.23506 3.22047 0.141036 3.47897 0.047012C3.56513 0.047012 3.60821 0.047012 3.69438 0.047012C3.73746 0.047012 3.78055 0.0940241 3.86671 0.0940241C4.25446 0.188048 4.42679 0.423108 4.42679 0.893229C4.42679 1.03426 4.42679 1.12829 4.42679 1.26932C4.46988 1.83347 4.51296 2.3506 4.68529 2.86773C4.77146 3.05578 4.85763 3.19682 4.94379 3.33785C5.24537 3.00877 5.46079 2.67969 5.76237 2.44463C6.02087 2.20957 6.27937 1.97451 6.58095 1.73945C6.75328 1.59841 6.92562 1.64542 7.09795 1.78646C7.2272 1.88048 7.35645 2.02152 7.52878 2.11554L7.57187 2.06853C7.44262 1.73945 7.35645 1.45737 7.2272 1.12829C7.09795 0.846217 7.14103 0.564144 7.35645 0.423108C7.4857 0.329084 7.65803 0.23506 7.83036 0.141036C7.95961 0.0940241 8.13195 0.047012 8.30428 0C8.43353 0.047012 8.56278 0.047012 8.73511 0.047012ZM14.7668 15.1379C14.7668 14.2917 14.6806 13.4454 14.5083 12.6462C14.3359 11.8 14.0774 10.9538 13.9051 10.0606C13.6897 8.93229 13.3019 7.89802 12.7849 6.91077C12.6988 6.76973 12.6557 6.72272 12.5264 6.81675C12.3541 6.91077 12.1387 7.00479 11.9663 7.14583C11.1908 7.70997 10.7169 8.55619 10.3292 9.44942C10.1138 10.0136 9.81219 10.4367 9.38136 10.8598C8.64894 11.565 7.78728 11.894 6.83945 11.9881C6.23629 12.0821 6.1932 12.0351 5.89162 12.6462C5.11612 13.9626 4.94379 15.4199 5.07304 16.9713C5.07304 17.1124 5.15921 17.3004 5.24537 17.4415C5.71929 18.1466 6.27937 18.7578 6.88253 19.2749C8.21811 20.4502 9.68294 21.2494 11.277 21.8606C11.9233 22.0957 12.5695 21.8606 13.0003 21.2024C14.1636 19.3219 14.7668 17.3474 14.7668 15.1379ZM4.72838 18.6638C4.72838 18.5698 4.68529 18.5227 4.68529 18.4757C4.51296 17.5825 4.38371 16.6893 4.42679 15.749C4.46988 14.2446 4.85763 12.8813 5.71929 11.706C6.02087 11.3299 6.36554 10.9538 6.62403 10.5307C6.88253 10.2016 7.09795 9.82552 7.2272 9.40241C7.39953 9.02631 7.35645 8.6032 7.05487 8.27412C6.53787 7.66296 5.9347 7.28687 5.15921 7.19284C4.34063 7.09882 3.69438 7.56894 3.17738 8.22711C3.00505 8.41515 2.8758 8.46217 2.66038 8.41515C2.05722 8.18009 1.49714 7.99205 0.850892 7.75699C0.807809 7.85101 0.764726 7.99205 0.67856 8.18009C1.32481 8.55619 1.92797 8.88527 2.53114 9.21436C2.74655 9.30838 2.83272 9.44942 2.78963 9.63747C2.74655 9.82552 2.6173 9.87253 2.40189 9.91954C1.8418 9.96655 1.28172 10.0606 0.721643 10.1076C0.67856 10.1076 0.592393 10.1546 0.592393 10.2016C0.592393 10.3897 0.592393 10.5777 0.592393 10.8128C0.721643 10.7658 0.764726 10.7658 0.850892 10.7658C1.45406 10.6247 2.05722 10.5777 2.66038 10.8598C2.74655 10.9068 2.8758 11.0478 2.91888 11.1889C3.09122 11.847 3.17738 12.4582 3.34972 13.1164C3.43588 13.5395 3.52205 13.9626 3.52205 14.3857C3.56513 15.514 3.56513 16.6893 3.60821 17.8176C3.60821 18.0996 3.6513 18.3817 3.6513 18.6638C4.03905 18.6638 4.38371 18.6638 4.72838 18.6638ZM6.92562 11.2359C6.92562 11.2359 6.92562 11.2829 6.9687 11.2829C7.31337 11.1889 7.70111 11.0948 8.04578 10.9538C8.77819 10.6247 9.38136 10.1076 9.72602 9.30838C9.94144 8.79125 10.1999 8.27412 10.5015 7.804C11.2339 6.72272 12.1818 5.97053 13.5173 6.01754C13.5604 6.01754 13.6466 6.01754 13.6466 5.97053C13.7328 5.82949 13.8189 5.64144 13.862 5.4534C13.4743 5.17132 12.7849 5.0773 12.0956 5.12431C11.1478 5.21834 10.243 5.4534 9.33827 5.78248C9.20902 5.82949 8.99361 5.82949 8.86436 5.82949C8.69203 5.82949 8.51969 5.73547 8.34736 5.68846C8.21811 5.64144 8.17503 5.64144 8.08886 5.78248C7.7442 6.2526 7.52878 6.81675 7.35645 7.4279C7.31337 7.56894 7.35645 7.66296 7.44262 7.75699C8.0027 8.36814 8.08886 9.12034 7.78728 9.91954C7.65803 10.2486 7.44262 10.5777 7.27028 10.9068C7.14103 10.9538 7.05487 11.0948 6.92562 11.2359ZM7.65803 5.21834C7.39953 4.93626 7.2272 4.65419 7.14103 4.2781C7.05487 3.80798 7.05487 3.33785 7.18412 2.86773C7.2272 2.7267 7.18412 2.67969 7.09795 2.63267C7.05487 2.58566 6.9687 2.53865 6.92562 2.49164C6.83945 2.39761 6.75328 2.39761 6.62403 2.49164C6.23629 2.96176 5.80546 3.38487 5.41771 3.85499C5.15921 4.18407 5.02996 4.18407 4.72838 3.94901C4.34063 3.66694 4.1683 3.24383 4.03905 2.82072C3.86671 2.20957 3.78055 1.59841 3.82363 0.987253C3.82363 0.893229 3.82363 0.799205 3.69438 0.752193C3.47897 0.752193 3.26355 0.799205 3.09122 0.940241C3.17738 1.1753 3.26355 1.36335 3.30663 1.59841C3.43588 2.30359 3.52205 2.96176 3.6513 3.66694C3.69438 3.902 3.56513 4.04304 3.30663 4.09005C2.78963 4.13706 2.3588 4.2781 1.92797 4.56017C2.01414 4.88925 2.1003 5.17132 2.18647 5.4534C2.57422 5.40638 2.96197 5.35937 3.30663 5.35937C3.60821 5.35937 3.69438 5.4534 3.73746 5.78248C3.78055 6.11157 3.82363 6.48766 3.86671 6.86376C4.90071 6.34663 5.84854 6.58169 6.75328 7.14583C6.9687 6.39364 7.2272 5.78248 7.65803 5.21834ZM11.1908 2.16255C11.0185 2.11554 10.8893 2.11554 10.7169 2.06853C10.3723 2.02152 10.2861 1.78646 10.4584 1.45737C10.5446 1.31634 10.5015 1.22231 10.3723 1.12829C10.2861 1.08128 10.243 1.08128 10.1569 1.03426C10.0276 1.50439 9.89835 1.92749 9.85527 2.3506C9.81219 2.67969 9.63986 2.86773 9.33827 2.86773C8.99361 2.91475 8.86436 2.82072 8.86436 2.44463C8.82128 2.06853 8.82128 1.69243 8.73511 1.31634C8.60586 0.658168 8.47661 0.611157 7.91653 0.846217C7.91653 0.846217 7.87345 0.846217 7.87345 0.893229C7.91653 0.987253 7.91653 1.03426 7.95961 1.12829C8.13195 1.5514 8.2612 1.97451 8.21811 2.44463C8.17503 2.63267 8.13195 2.86773 8.0027 2.91475C7.78728 3.05578 7.7442 3.19682 7.7442 3.38487C7.7442 3.57291 7.70111 3.80798 7.7442 3.99602C7.83036 4.74822 8.64894 5.26535 9.33827 5.03029C9.55369 4.93626 9.81219 4.84224 10.0276 4.79523C10.3723 4.7012 10.7169 4.60718 11.0185 4.51316C11.0185 4.46614 11.0185 4.46614 11.0185 4.46614C10.9324 4.37212 10.8462 4.2781 10.76 4.18407C10.5446 3.94901 10.5446 3.902 10.6308 3.61993C10.8031 3.14981 11.0185 2.67969 11.1908 2.16255Z" fill="#242F9B"/>
</svg>
