<svg width="21" height="23" viewBox="0 0 21 23" fill="none" xmlns="http://www.w3.org/2000/svg">
<path d="M0.455901 0C0.553594 0.0940689 0.662141 0.188138 0.754407 0.288086C1.69877 1.36988 2.64314 2.45167 3.58208 3.53346C3.88601 3.88034 3.89144 3.9509 3.6255 4.35069C3.97285 4.72696 4.32563 5.10324 4.67298 5.47952C4.91721 5.74408 4.91179 5.92046 4.66755 6.19091C4.55358 6.31438 4.43418 6.43784 4.30935 6.57307C4.36362 6.63774 4.41247 6.69653 4.46131 6.74945C4.92807 7.25507 5.40025 7.76657 5.86701 8.27219C6.20351 8.6367 6.2415 8.91303 6.02983 9.3775C5.9647 9.51272 5.89957 9.65383 5.8453 9.79493C5.7259 10.1007 5.76931 10.3887 5.97556 10.6298C6.1818 10.8767 6.44774 10.9414 6.73539 10.8297C7.03932 10.7121 7.33783 10.5769 7.64176 10.4475C7.70147 10.424 7.76659 10.4005 7.84258 10.3652C7.92942 10.5886 8.01083 10.8062 8.10309 11.0531C7.5495 11.2471 7.06646 11.6116 6.47487 11.6175C5.53594 11.6293 4.84123 10.5592 5.16687 9.60091C5.23743 9.40102 5.33512 9.21876 5.40568 9.01886C5.42739 8.96007 5.42196 8.85424 5.38397 8.81308C4.86837 8.24279 4.34734 7.67838 3.79917 7.09045C3.66892 7.23743 3.54951 7.37853 3.43011 7.51376C3.19673 7.76069 3.03391 7.76657 2.80596 7.51964C2.45318 7.13748 2.1004 6.74945 1.75305 6.36729C1.39484 6.64362 1.32428 6.63774 1.00407 6.34377C0.74898 6.1086 0.493892 5.88519 0.244233 5.64414C0.151967 5.55595 0.0814108 5.456 0 5.35605C0.0108548 3.5805 0.0108548 1.78731 0.0108548 0C0.162822 0 0.309361 0 0.455901 0ZM2.97421 3.9215C2.23608 3.08076 1.4871 2.22238 0.705561 1.32284C0.705561 2.59278 0.705561 3.78627 0.705561 4.97977C0.705561 5.02681 0.716415 5.09148 0.743552 5.115C0.949793 5.3149 1.16146 5.50303 1.35142 5.67353C1.89959 5.07972 2.43147 4.50943 2.97421 3.9215ZM3.96742 5.85579C3.6852 5.55007 3.38669 5.23258 3.11532 4.93862C2.84938 5.23258 2.5563 5.54419 2.29579 5.83227C2.57258 6.13212 2.86023 6.44372 3.14246 6.74945C3.41926 6.4496 3.70691 6.138 3.96742 5.85579Z" fill="#5EC426"/>
<path d="M15.6804 17.053C15.5664 16.9589 15.4579 16.8883 15.3765 16.7943C15.2353 16.6296 15.2408 16.4356 15.3765 16.2592C15.409 16.2122 15.4524 16.1769 15.4904 16.1358C17.0318 14.4661 18.5732 12.7963 20.1146 11.1266C20.1526 11.0855 20.1851 11.0208 20.234 11.009C20.3588 10.9737 20.5053 10.9032 20.6085 10.9502C20.7007 10.9855 20.8093 11.1501 20.8093 11.2618C20.8256 12.0144 20.8256 12.7728 20.8093 13.5254C20.8093 13.643 20.717 13.7841 20.6302 13.8781C19.4199 15.201 18.2041 16.5179 16.983 17.8349C16.7387 18.0995 16.5705 18.0995 16.3263 17.829C16.272 17.7644 16.2286 17.6879 16.1906 17.6409C15.7292 18.1406 15.295 18.611 14.8609 19.0754C14.9531 19.2636 15.0834 19.4694 15.1594 19.6986C15.4145 20.4982 15.1811 21.1685 14.6221 21.7152C13.5474 22.7676 11.5881 22.8029 10.4647 21.8093C9.43347 20.8921 9.47146 19.4693 10.5786 18.658C11.6587 17.8702 12.8147 17.829 13.9925 18.3993C14.3398 18.5698 14.2204 18.611 14.5081 18.3052C14.888 17.9113 15.2571 17.5115 15.6804 17.053ZM12.4728 21.7858C13.1024 21.7564 13.6777 21.6094 14.1607 21.1567C14.6492 20.6981 14.7035 20.0749 14.2856 19.5458C13.9328 19.099 13.4552 18.8991 12.9341 18.8226C12.1689 18.705 11.4525 18.8403 10.8392 19.3929C10.3181 19.8633 10.2639 20.5041 10.7252 21.045C11.1974 21.5977 11.8269 21.7505 12.4728 21.7858ZM20.12 12.2437C18.7903 13.6841 17.466 15.1187 16.1417 16.5532C16.2991 16.7178 16.4728 16.9119 16.6573 17.1C16.6682 17.0941 16.6845 17.0882 16.7007 17.0706C17.8188 15.8653 18.9314 14.6542 20.044 13.4431C20.0766 13.4019 20.1146 13.349 20.12 13.2961C20.12 12.9433 20.12 12.5906 20.12 12.2437Z" fill="#5EC426"/>
<path d="M12.6518 17.2159C12.4185 17.2571 12.2068 17.2982 11.9788 17.3335C11.8866 16.7514 11.7997 16.1929 11.7129 15.6285C11.5718 14.7172 11.4361 13.8059 11.295 12.8946C11.2081 12.3537 10.8608 12.0127 10.4049 12.0127C9.95985 12.0127 9.61249 12.3478 9.53108 12.8829C9.22172 14.8524 8.92322 16.8279 8.61928 18.8033C8.56501 19.1737 8.52159 19.55 8.41847 19.9028C8.20137 20.6318 7.5121 21.1021 6.84453 21.0257C6.07926 20.9375 5.52024 20.3555 5.41712 19.5265C5.12947 17.2571 4.84725 14.9818 4.55417 12.7065C4.53789 12.583 4.48904 12.4537 4.42934 12.342C3.79433 11.2249 3.31672 10.0314 3.05078 8.71443C3.26788 8.66151 3.47954 8.6086 3.7075 8.5498C3.73463 8.64387 3.7672 8.72618 3.78348 8.80849C4.02228 9.88441 4.41848 10.8956 4.96665 11.8305C5.17289 12.1832 5.24345 12.5536 5.29229 12.9475C5.56366 15.1052 5.83503 17.2629 6.1064 19.4148C6.17153 19.9321 6.51346 20.2731 6.9585 20.279C7.38727 20.2849 7.74005 19.9615 7.82146 19.45C8.1471 17.3453 8.47274 15.2463 8.79296 13.1415C8.86352 12.6712 8.92864 12.195 9.24886 11.8305C9.6722 11.3484 10.1878 11.1661 10.7794 11.319C11.3601 11.4718 11.7835 11.8716 11.9137 12.5125C12.082 13.3356 12.1905 14.1704 12.3208 14.9994C12.4239 15.6638 12.527 16.3281 12.6301 16.9925C12.6356 17.0572 12.641 17.1218 12.6518 17.2159Z" fill="#5EC426"/>
<path d="M16.0132 14.6988C15.7744 14.6635 15.5573 14.6282 15.3294 14.593C15.3999 14.005 15.4868 13.4347 15.5411 12.8644C15.579 12.4529 15.7093 12.0942 15.9101 11.7415C16.7188 10.3246 17.1693 8.78419 17.305 7.12623C17.3809 6.1973 17.3375 5.286 16.9413 4.42175C16.1272 2.66383 14.1354 1.79369 12.4366 2.48157C11.8396 2.72263 11.2426 2.94016 10.5913 2.9578C10.016 2.97544 9.46238 2.88137 8.91421 2.69323C8.44745 2.53449 7.97527 2.34047 7.49223 2.28168C6.36876 2.14645 5.39183 2.55212 4.5723 3.39875C4.52345 3.45166 4.4746 3.49869 4.42033 3.55161C4.24665 3.38111 4.08383 3.22237 3.91016 3.05187C4.65371 2.18761 5.54923 1.68199 6.61842 1.52913C7.37283 1.4233 8.10553 1.535 8.80566 1.84661C9.864 2.31695 10.9169 2.32283 11.9807 1.85837C13.0716 1.38214 14.1733 1.34099 15.2643 1.83485C16.9142 2.58152 17.8748 3.93964 17.9997 5.87394C18.1299 7.92581 17.6469 9.85423 16.7514 11.6592C16.6699 11.8179 16.5994 11.9884 16.4963 12.1354C16.2955 12.4176 16.252 12.741 16.214 13.082C16.1543 13.617 16.0838 14.1461 16.0132 14.6988Z" fill="#5EC426"/>
</svg>
