<svg width="17" height="23" viewBox="0 0 17 23" fill="none" xmlns="http://www.w3.org/2000/svg">
<path d="M15.5981 11.6899C15.5981 12.2007 15.5981 12.7181 15.5981 13.2356C15.5981 13.7262 15.5237 14.2034 15.3127 14.6469C14.7916 15.7423 13.9603 16.3203 12.8312 16.3673C12.1922 16.3942 11.547 16.3741 10.9018 16.3741C10.5792 16.3741 10.4241 16.5018 10.4117 16.7706C10.3993 17.0797 10.6102 17.3351 10.908 17.3418C11.5035 17.3552 12.0991 17.3485 12.6947 17.3485C14.3759 17.3485 15.5547 18.6187 15.5733 20.4399C15.5795 20.9574 15.5919 21.4816 15.5919 21.9991C15.5919 22.3889 15.4678 22.53 15.1018 22.53C10.2318 22.53 5.36791 22.53 0.497862 22.53C0.131833 22.53 0.00775485 22.3956 0.00775485 21.9991C0.00775485 21.3472 -0.0232646 20.6886 0.0387743 20.0367C0.181464 18.4776 1.32918 17.3754 2.78089 17.3485C3.10349 17.3418 3.4323 17.3552 3.7549 17.3418C4.41872 17.3284 5.08253 16.663 5.16318 15.9641C5.21281 15.5206 5.05151 15.1913 4.72891 14.9224C3.45711 13.8875 2.52653 12.5568 1.93716 10.9574C1.5153 9.80818 1.34779 8.61193 1.34159 7.36865C1.33539 6.27993 1.43465 5.22482 1.86892 4.23691C2.89256 1.8982 4.5614 0.473458 6.93129 0.0433484C7.63233 -0.0843404 8.29614 0.097112 8.97236 0.238242C10.9824 0.668351 12.9863 1.10518 14.9963 1.53529C15.3624 1.61594 15.4492 1.7369 15.4182 2.14685C15.3748 2.71809 15.2073 3.24229 14.9405 3.73288C14.8847 3.82697 14.8847 3.98154 14.9033 4.09579C15.0274 4.77455 15.1762 5.4466 15.3065 6.12536C15.3313 6.27321 15.3438 6.4345 15.3127 6.57563C15.2321 6.97886 15.35 7.32833 15.5299 7.67779C15.8649 8.32967 16.1378 9.02188 16.5101 9.64688C17.025 10.5071 16.6838 11.5824 15.5981 11.6899ZM7.21667 21.7101C7.21667 21.6093 7.21667 21.5152 7.21667 21.4278C7.21667 19.62 7.21667 17.8055 7.21667 15.9977C7.21667 15.7155 7.22907 15.4265 7.2787 15.1509C7.62612 13.2356 9.07163 11.9318 10.8708 11.9117C12.1115 11.8982 13.3461 11.9117 14.5869 11.9117C14.6675 11.9117 14.7482 11.9117 14.8536 11.9117C14.8536 11.7168 14.8536 11.5622 14.8536 11.4009C14.8536 10.991 14.9715 10.8633 15.3562 10.8633C15.4182 10.8633 15.4802 10.8633 15.5423 10.8633C15.9828 10.8566 16.1254 10.6079 15.9145 10.1778C15.5237 9.37807 15.1328 8.57833 14.742 7.78532C14.5931 7.4829 14.5248 7.16703 14.5435 6.81757C14.5559 6.53531 14.5683 6.24633 14.531 5.96407C14.469 5.48692 14.3697 5.00977 14.2767 4.49229C14.165 4.57966 14.1092 4.61998 14.0658 4.6603C13.4392 5.19122 12.7319 5.50036 11.9502 5.60789C11.4043 5.68181 10.8956 5.87671 10.4303 6.18585C10.0767 6.42106 9.77267 6.71004 9.56173 7.10655C9.46867 7.288 9.45006 7.44929 9.53692 7.66435C9.63618 7.91301 9.6734 8.20871 9.6734 8.48425C9.6734 8.69258 9.49969 8.79339 9.30737 8.78667C9.11505 8.77995 8.99718 8.65226 8.96616 8.44392C8.95375 8.34311 8.94755 8.24231 8.92273 8.14822C8.81727 7.70467 8.43263 7.42913 8.01076 7.46946C7.60131 7.50978 7.26009 7.85252 7.24768 8.30279C7.22907 8.85387 7.22287 9.41167 7.25389 9.96275C7.29111 10.5945 7.82465 11.1254 8.41401 11.159C8.73041 11.1791 8.91033 11.0246 8.96616 10.6886C9.01579 10.3929 9.17089 10.2517 9.40043 10.292C9.61136 10.3324 9.72924 10.534 9.70442 10.8028C9.64238 11.374 9.30117 11.784 8.77384 11.9184C8.35818 12.0259 7.96734 11.9318 7.57649 11.7302C7.04296 12.8391 6.48461 13.9077 5.59745 14.6603C5.69671 14.9157 5.80838 15.1308 5.85802 15.366C6.1558 16.6765 5.08253 18.1214 3.77972 18.1617C3.45711 18.1751 3.12831 18.155 2.80571 18.1684C1.88133 18.1886 1.13066 18.7665 0.870094 19.6738C0.677774 20.3459 0.789444 21.0313 0.764629 21.7235C2.92978 21.7101 5.05771 21.7101 7.21667 21.7101ZM8.77384 6.81085C9.07163 6.46139 9.32599 6.1052 9.62998 5.82294C10.3434 5.16434 11.1996 4.90224 12.1115 4.75439C13.0483 4.59982 13.7742 4.02186 14.3449 3.2154C14.531 2.95331 14.6365 2.63745 14.6365 2.30142C14.5931 2.28126 14.5683 2.26782 14.5497 2.2611C12.5892 1.83771 10.6226 1.41432 8.66217 0.990933C8.32716 0.917008 7.99215 0.80276 7.65714 0.809481C6.26747 0.836362 5.0329 1.34712 4.00926 2.36863C2.61959 3.75976 2.0054 5.50036 2.08606 7.54338C2.14809 9.15629 2.46449 10.6751 3.271 12.0528C3.73629 12.8458 4.30084 13.538 5.00188 14.1362C5.20661 13.9413 5.41134 13.7665 5.59125 13.5582C6.16201 12.8929 6.55905 12.1066 6.92508 11.3068C6.9499 11.2531 6.91888 11.159 6.89406 11.0918C6.78239 10.8095 6.59628 10.5407 6.57146 10.245C6.50942 9.57968 6.49702 8.90763 6.51563 8.24231C6.52183 7.98021 6.62109 7.69795 6.75137 7.46946C7.16703 6.71676 7.93011 6.48827 8.77384 6.81085ZM14.8288 21.7101C14.8288 21.2128 14.835 20.7289 14.8288 20.245C14.8226 19.8015 14.6861 19.405 14.4442 19.0555C14.0223 18.4372 13.4392 18.1617 12.7381 18.1617C12.0929 18.1617 11.4539 18.1751 10.8087 18.1483C10.1387 18.1147 9.63618 17.4762 9.6672 16.737C9.69202 16.0716 10.1945 15.581 10.8645 15.581C11.516 15.581 12.1674 15.5945 12.8126 15.5743C13.5694 15.5542 14.1588 15.1778 14.5621 14.4789C14.6055 14.405 14.6365 14.3243 14.6799 14.2168C13.5881 14.2168 12.5334 14.2168 11.4849 14.2168C10.1945 14.2168 9.33839 15.1509 9.33839 16.5488C9.33839 18.1819 9.33839 19.8149 9.33839 21.4547C9.33839 21.5354 9.33839 21.616 9.33839 21.7101C11.1809 21.7101 13.0049 21.7101 14.8288 21.7101ZM8.59393 21.7101C8.59393 21.5757 8.59393 21.4816 8.59393 21.3808C8.59393 19.741 8.58772 18.0945 8.59393 16.4547C8.60013 14.7208 9.81609 13.4103 11.4229 13.4103C12.4776 13.4103 13.526 13.4103 14.5807 13.4103C14.6613 13.4103 14.7482 13.4103 14.8412 13.4103C14.8412 13.1684 14.8412 12.9533 14.8412 12.7249C14.7606 12.7181 14.6923 12.7114 14.6303 12.7114C13.4019 12.7114 12.1736 12.7047 10.939 12.7114C9.21432 12.7181 7.96113 14.0891 7.95493 15.9574C7.95493 17.7854 7.95493 19.6133 7.95493 21.4346C7.95493 21.5219 7.95493 21.6093 7.95493 21.7101C8.18447 21.7101 8.37679 21.7101 8.59393 21.7101Z" fill="#03C2EC"/>
<path d="M2.99241 7.10675C3.04824 5.84331 3.51354 4.67395 4.30143 3.65916C4.67986 3.17528 5.12034 2.7519 5.55461 2.32179C5.76554 2.11345 6.0075 2.14705 6.14398 2.34867C6.27426 2.54356 6.21843 2.76534 6.0075 2.95351C5.03349 3.80701 4.2642 4.81508 3.90438 6.13901C3.81132 6.48175 3.76789 6.84465 3.73687 7.20084C3.70586 7.5839 3.59419 7.7788 3.35223 7.77208C3.11028 7.76536 2.98621 7.56374 2.99241 7.10675Z" fill="#03C2EC"/>
</svg>
