<svg width="23" height="23" viewBox="0 0 23 23" fill="none" xmlns="http://www.w3.org/2000/svg">
<path d="M0 11.1184C1.92843 8.2184 4.20422 5.74015 7.16873 4.0923C8.57013 3.31379 10.0614 2.87263 11.6484 2.91156C13.2175 2.95048 14.6728 3.45003 16.0503 4.23502C17.9967 5.35089 19.6376 6.87547 21.1049 8.63361C21.7098 9.36022 22.2548 10.1387 22.8178 10.9043C23.0094 11.1703 23.0034 11.3389 22.8178 11.6114C21.093 14.1545 19.0807 16.3668 16.5534 17.9757C14.9363 19.0073 13.2115 19.6495 11.3071 19.6106C9.73198 19.5782 8.27069 19.0721 6.88725 18.2807C4.92888 17.1583 3.27594 15.6143 1.80266 13.8431C1.16784 13.0711 0.598891 12.2277 0 11.4103C0 11.313 0 11.2157 0 11.1184ZM11.8461 3.88469C9.94759 3.88469 8.24074 4.46209 6.6956 5.48064C4.47372 6.94684 2.67704 8.8996 1.10196 11.1119C1.01213 11.2351 1.0241 11.313 1.10795 11.4233C1.49723 11.9358 1.86854 12.4613 2.27579 12.9543C3.82692 14.8422 5.55771 16.4901 7.6718 17.6124C8.82167 18.2223 10.0314 18.6115 11.325 18.6375C12.9301 18.6699 14.4033 18.1509 15.7868 17.327C18.2422 15.8673 20.1707 13.7653 21.8655 11.3908C21.9434 11.287 21.9314 11.2092 21.8595 11.1184C21.5781 10.7421 21.3086 10.3528 21.0151 9.98303C19.5239 8.09514 17.8589 6.42783 15.8407 5.21465C14.4872 4.41668 13.0558 3.89767 11.8461 3.88469Z" fill="#FFAB00"/>
<path d="M11.0311 0.908262C11.0311 0.75256 11.0251 0.603346 11.0311 0.447644C11.0491 0.181652 11.2407 0 11.4743 0C11.7079 0 11.9055 0.181652 11.9175 0.447644C11.9294 0.75256 11.9294 1.06396 11.9175 1.36888C11.9055 1.64136 11.7019 1.84248 11.4623 1.83599C11.2347 1.8295 11.0431 1.62838 11.0251 1.36888C11.0191 1.21967 11.0311 1.06396 11.0311 0.908262Z" fill="#FFAB00"/>
<path d="M11.9227 21.6222C11.9227 21.7779 11.9347 21.9271 11.9227 22.0828C11.9047 22.3488 11.7131 22.5305 11.4795 22.5305C11.2459 22.5305 11.0483 22.3423 11.0363 22.0828C11.0243 21.7714 11.0243 21.4535 11.0363 21.1356C11.0483 20.8891 11.2459 20.701 11.4675 20.6945C11.6951 20.688 11.8987 20.8826 11.9227 21.1356C11.9287 21.2978 11.9227 21.46 11.9227 21.6222Z" fill="#FFAB00"/>
<path d="M5.49497 2.12695C5.81239 2.17885 6.54303 2.96385 6.54303 3.26877C6.54303 3.4634 6.46518 3.61261 6.30348 3.69695C6.13579 3.78778 5.96211 3.78129 5.82436 3.64505C5.60277 3.43096 5.39316 3.19741 5.18954 2.96385C5.06377 2.81464 5.03982 2.61352 5.14163 2.44485C5.23146 2.31509 5.3752 2.23075 5.49497 2.12695Z" fill="#FFAB00"/>
<path d="M16.788 3.78677C16.6862 3.70244 16.5185 3.62458 16.4646 3.48834C16.4107 3.35211 16.4167 3.11206 16.5005 3.00178C16.6862 2.73578 16.9257 2.50223 17.1533 2.27517C17.309 2.11946 17.5546 2.14541 17.7043 2.29463C17.86 2.44384 17.9259 2.71632 17.7941 2.885C17.5665 3.17045 17.309 3.42996 17.0575 3.68946C17.0096 3.74136 16.9257 3.74136 16.788 3.78677Z" fill="#FFAB00"/>
<path d="M5.49101 20.4045C5.38321 20.3137 5.21552 20.2358 5.16162 20.1061C5.10772 19.9634 5.10173 19.7298 5.17959 19.613C5.37123 19.3406 5.61079 19.1005 5.85035 18.8734C6.01205 18.7177 6.26957 18.7567 6.41929 18.9253C6.575 19.094 6.60495 19.36 6.46122 19.5417C6.25759 19.7947 6.03001 20.0282 5.79645 20.2618C5.73656 20.3202 5.62876 20.3396 5.49101 20.4045Z" fill="#FFAB00"/>
<path d="M17.4346 20.4166C17.2848 20.3258 17.171 20.2868 17.0872 20.2025C16.9015 20.0209 16.7219 19.8197 16.5482 19.6251C16.3506 19.398 16.3506 19.1061 16.5362 18.9115C16.7159 18.7298 16.9794 18.7298 17.177 18.9374C17.3687 19.1385 17.5603 19.3397 17.746 19.5537C17.8777 19.7095 17.9137 19.9171 17.7999 20.0922C17.716 20.222 17.5663 20.3063 17.4346 20.4166Z" fill="#FFAB00"/>
<path d="M17.152 11.281C17.1221 14.408 15.002 16.9836 12.1333 17.3728C9.13284 17.7815 6.28212 15.4201 5.8629 12.1698C5.41373 8.70541 7.61166 5.58488 10.8097 5.1567C11.9476 5.00749 13.0376 5.22806 14.0677 5.79248C14.3672 5.96116 14.439 6.16228 14.3192 6.51261C14.1935 6.8824 14.2653 7.21327 14.5109 7.44033C14.7504 7.66091 15.0619 7.68686 15.3673 7.50521C15.6907 7.31058 15.8704 7.35599 16.092 7.68686C16.7747 8.7119 17.164 10.0224 17.152 11.281ZM16.2537 11.268C16.2477 10.3533 16.0381 9.49041 15.6248 8.69244C15.5589 8.56268 15.4991 8.51078 15.3493 8.54971C14.2653 8.80273 13.3071 7.9269 13.367 6.73318C13.373 6.56451 13.3431 6.49314 13.1933 6.43476C12.3309 6.09091 11.4506 5.9936 10.5522 6.18823C8.22852 6.69426 6.5636 8.99087 6.70135 11.4691C6.85107 14.168 8.68966 16.218 11.1451 16.4256C13.8821 16.6592 16.2776 14.2328 16.2537 11.268Z" fill="#FFAB00"/>
<path d="M10.1223 12.7334C9.76294 12.7334 9.43355 12.7334 9.10416 12.7334C8.73285 12.7269 8.57115 12.5583 8.56516 12.156C8.56516 11.5592 8.55917 10.9558 8.56516 10.359C8.56516 9.9762 8.73285 9.80103 9.09219 9.79454C9.42158 9.78806 9.75097 9.79454 10.1163 9.79454C10.1163 9.68425 10.1163 9.59343 10.1163 9.5026C10.1163 9.23661 10.1163 8.97062 10.1163 8.70463C10.1223 8.28294 10.278 8.12075 10.6613 8.11426C11.2003 8.11426 11.7393 8.11426 12.2723 8.11426C12.6616 8.11426 12.8173 8.28294 12.8173 8.70463C12.8173 9.06145 12.8173 9.41178 12.8173 9.80103C13.1587 9.80103 13.4821 9.80103 13.7995 9.80103C14.2187 9.80103 14.3684 9.96971 14.3684 10.4109C14.3684 10.9883 14.3684 11.5592 14.3684 12.1366C14.3684 12.5712 14.2127 12.7334 13.8114 12.7399C13.506 12.7399 13.2006 12.7464 12.8951 12.7464C12.8832 12.7464 12.8652 12.7594 12.8233 12.7788C12.8233 13.1097 12.8233 13.4535 12.8233 13.7974C12.8233 14.258 12.6736 14.4202 12.2424 14.4202C11.7093 14.4202 11.1823 14.4202 10.6493 14.4202C10.278 14.4202 10.1163 14.245 10.1103 13.8428C10.1223 13.486 10.1223 13.1292 10.1223 12.7334ZM11.9369 13.4341C11.9369 13.0838 11.9369 12.7529 11.9369 12.422C11.9369 11.929 12.0926 11.7668 12.5418 11.7668C12.8532 11.7668 13.1646 11.7668 13.4821 11.7668C13.4821 11.4229 13.4821 11.1115 13.4821 10.8066C13.4581 10.7936 13.4401 10.7807 13.4282 10.7807C13.1287 10.7742 12.8293 10.7742 12.5298 10.7742C12.0926 10.7742 11.9369 10.6055 11.9369 10.1319C11.9369 9.79454 11.9369 9.45719 11.9369 9.10686C11.6195 9.10686 11.332 9.10686 11.0206 9.10686C11.0206 9.48963 11.0266 9.85942 11.0206 10.2292C11.0146 10.5795 10.8409 10.7612 10.5175 10.7742C10.4157 10.7807 10.3079 10.7742 10.2061 10.7742C9.96657 10.7742 9.72102 10.7742 9.48745 10.7742C9.48745 11.131 9.48745 11.4424 9.48745 11.7538C9.52339 11.7603 9.54734 11.7668 9.5713 11.7668C9.8408 11.7668 10.1103 11.7668 10.3798 11.7668C10.8889 11.7668 11.0266 11.916 11.0266 12.4739C11.0266 12.7918 11.0266 13.1162 11.0266 13.4406C11.338 13.4341 11.6195 13.4341 11.9369 13.4341Z" fill="#FFAB00"/>
</svg>
