<svg width="19" height="23" viewBox="0 0 19 23" fill="none" xmlns="http://www.w3.org/2000/svg">
<path d="M5.37307 12.9292C3.121 12.433 1.78461 10.9175 1.15353 8.70473C0.708068 7.17587 0.361596 5.62019 0.0522458 4.0511C-0.0591203 3.48783 0.0274978 2.8441 0.12649 2.26743C0.18836 1.91874 0.361596 1.51641 0.609076 1.28842C1.47526 0.510582 2.44043 -0.0258598 3.61596 0.000962321C4.13567 0.0143734 4.48214 0.309416 4.54401 0.87268C4.61825 1.43594 4.39552 1.89192 3.87581 1.9858C3.1705 2.1065 2.4528 2.50883 1.69799 2.07967C1.62374 2.03944 1.2154 2.3613 1.20303 2.53565C1.15353 3.21961 1.07929 3.94381 1.22778 4.58754C1.56187 6.07616 1.94547 7.5782 2.4528 8.99977C3.15812 10.9578 4.84099 11.9904 6.4991 11.6686C7.69938 11.4272 8.59031 10.6761 9.12239 9.53621C10.0009 7.67208 10.5578 5.68724 10.731 3.59512C10.7558 3.24643 10.7434 2.87092 10.6815 2.53565C10.6073 2.13332 10.4588 2.02603 9.96383 2.1065C9.22139 2.22719 8.4047 2.01262 7.64989 1.78463C7.46428 1.73099 7.26629 1.00679 7.36528 0.711747C7.46428 0.389882 7.90974 0.0411954 8.21909 0.0143734C9.34513 -0.0795039 10.3598 0.416705 11.1889 1.18113C11.5477 1.503 11.7828 2.18696 11.7952 2.70999C11.8076 3.74264 11.7086 4.80211 11.4982 5.82135C11.2631 6.9747 10.8919 8.10123 10.5083 9.20093C9.80296 11.226 8.51607 12.3928 6.48673 12.9158C6.56097 14.6324 6.20213 16.4027 6.84558 18.1059C7.71176 20.3857 9.9762 21.7134 12.1664 21.2709C14.468 20.8015 16.1261 18.7094 16.1756 16.1881C16.188 15.5444 16.1632 14.8872 16.188 14.2435C16.2003 13.6132 16.188 13.1035 15.6064 12.6476C14.8516 12.0575 14.9382 10.7834 15.6311 10.0995C16.3117 9.42892 17.3387 9.48257 17.9574 10.2336C18.5885 10.9846 18.5266 12.205 17.7471 12.7817C17.3264 13.0901 17.2769 13.4254 17.2769 13.8814C17.2769 14.9274 17.3511 16.0003 17.2026 17.0196C16.7324 20.493 13.9854 22.7729 10.7186 22.5047C7.7365 22.2499 5.39782 19.447 5.37307 16.0674C5.36069 15.0481 5.37307 14.0155 5.37307 12.9292Z" fill="#FF3E1D"/>
</svg>
