<svg width="333" height="437" viewBox="0 0 333 437" fill="none" xmlns="http://www.w3.org/2000/svg">
<path d="M5.60835 234.27L8.80344 238.682C7.9789 239.327 7.87583 240.511 8.49424 241.264L9.42184 242.448L10.0402 243.309L10.9678 244.492C11.5862 245.353 12.72 245.461 13.4415 244.815L16.6365 249.227C17.2549 250.087 18.3887 250.195 19.1102 249.549L20.347 248.581L14.0599 239.973L13.4415 239.112L7.15436 230.504L5.91756 231.472C5.19609 232.333 4.98995 233.517 5.60835 234.27Z" fill="white"/>
<path d="M51.6801 184.77L75.0764 217.051C76.107 218.557 75.9009 220.602 74.458 221.785L29.5207 257.402C28.0777 258.478 26.1195 258.262 24.9857 256.756L1.58948 224.475C0.558811 222.969 0.764945 220.925 2.20789 219.741L47.1452 184.125C48.5881 182.941 50.5464 183.264 51.6801 184.77Z" fill="#2B2B2B"/>
<path d="M69.8048 218.612L48.6836 189.555L6.89286 222.663L28.0141 251.72L69.8048 218.612Z" fill="#58ACF5"/>
<path d="M28.3874 245.245L12.8242 223.832" stroke="white" stroke-width="0.5" stroke-miterlimit="10"/>
<path d="M32.5124 242.345L16.9492 220.824" stroke="white" stroke-width="0.5" stroke-miterlimit="10"/>
<path d="M36.5319 239.323L20.9688 217.91" stroke="white" stroke-width="0.5" stroke-miterlimit="10"/>
<path d="M40.5514 236.315L24.9883 214.902" stroke="white" stroke-width="0.5" stroke-miterlimit="10"/>
<path d="M149.388 436.99L189.172 426.553L184.741 412.78L184.328 411.273L166.085 417.73C166.085 418.16 165.055 420.742 165.261 421.28C153.717 423.54 149.285 432.794 149.388 436.99Z" fill="white"/>
<path d="M165.262 421.277C165.262 421.277 168.045 421.385 168.663 423.967" stroke="#353535" stroke-width="0.6715" stroke-miterlimit="10" stroke-linecap="round" stroke-linejoin="round"/>
<path d="M160.621 422.461C160.621 422.461 163.404 422.569 164.022 425.151" stroke="#353535" stroke-width="0.6715" stroke-miterlimit="10" stroke-linecap="round" stroke-linejoin="round"/>
<path d="M188.965 425.047L149.387 435.484" stroke="#353535" stroke-width="0.6715" stroke-miterlimit="10" stroke-linecap="round" stroke-linejoin="round"/>
<path d="M187.009 419.449C187.009 419.449 181.341 421.063 182.371 426.766" stroke="#353535" stroke-width="0.6715" stroke-miterlimit="10" stroke-linecap="round" stroke-linejoin="round"/>
<path d="M43.6445 436.454L84.7683 436.669L83.8407 422.143L83.7377 420.637L64.5672 422.143C64.361 422.574 62.815 424.833 62.9181 425.371C51.0654 424.618 44.5721 432.365 43.6445 436.454Z" fill="white"/>
<path d="M62.8164 425.477C62.8164 425.477 65.4962 426.337 65.4962 428.92" stroke="#353535" stroke-width="0.6715" stroke-miterlimit="10" stroke-linecap="round" stroke-linejoin="round"/>
<path d="M58.0742 425.367C58.0742 425.367 60.754 426.228 60.754 428.81" stroke="#353535" stroke-width="0.6715" stroke-miterlimit="10" stroke-linecap="round" stroke-linejoin="round"/>
<path d="M84.8693 435.266L44.0547 435.051" stroke="#353535" stroke-width="0.6715" stroke-miterlimit="10" stroke-linecap="round" stroke-linejoin="round"/>
<path d="M84.3559 429.352C84.3559 429.352 78.4811 429.459 78.1719 435.162" stroke="#353535" stroke-width="0.6715" stroke-miterlimit="10" stroke-linecap="round" stroke-linejoin="round"/>
<path d="M63.0176 189.294C63.0176 189.294 55.4937 268.596 55.3906 298.186C55.3906 327.776 55.4937 422.788 55.4937 422.788L89.1967 423.111C89.1967 423.111 91.1549 332.188 91.3611 313.896C91.5672 295.496 110.428 228.676 110.428 228.676L113.314 203.713L113.933 194.244L113.727 188.648L63.0176 189.294Z" fill="#58ACF5"/>
<path d="M98.168 200.056C98.168 200.056 109.608 273.439 118.472 301.631C127.336 329.715 160.111 420.315 160.111 420.315L189.176 411.384C189.176 411.384 164.131 314.22 158.771 296.681C153.412 279.142 157.329 219.854 146.197 182.839C144.548 177.459 143.002 160.781 143.002 160.781L135.891 174.231L146.197 182.839L98.168 200.056Z" fill="#58ACF5"/>
<path d="M141.656 187.465C147.222 212.966 149.386 261.602 151.551 291.407C152.375 302.167 184.12 411.382 184.12 411.382" stroke="#2E84C8" stroke-miterlimit="10"/>
<path d="M102.289 239.434C102.289 239.434 86.7254 290.329 86.6224 303.133C86.5193 315.938 83.3242 422.678 83.3242 422.678" stroke="#2E84C8" stroke-miterlimit="10"/>
<path d="M20.8601 193.492C20.8601 193.492 16.2221 203.176 17.665 206.727C19.1079 210.278 20.654 216.304 21.6846 215.658C22.7153 215.013 23.4368 206.404 23.4368 204.575C26.6318 202.961 31.1668 198.872 31.1668 198.872L20.8601 193.492Z" fill="#F9BF9C"/>
<path d="M80.5389 66.5156C80.5389 66.5156 66.6249 75.7693 62.3991 80.0733C55.1844 87.175 50.1341 129.677 47.7636 136.349C45.393 143.02 24.3673 180.895 17.668 192.301C31.2728 206.182 34.9833 209.087 34.9833 209.087C34.9833 209.087 53.7415 187.674 65.285 156.47C76.6224 126.019 84.6616 156.47 84.6616 156.47H96.4113C96.4113 156.47 96.1021 160.882 99.1941 155.502C102.286 150.122 102.183 150.122 102.183 150.122L94.7622 114.613L91.6702 103.638L91.361 80.5037L84.1463 70.4969L80.5389 66.5156Z" fill="white"/>
<path d="M96.7189 221.466L93.0084 255.145C93.0084 255.145 60.0269 255.253 50.957 250.949C52.6061 233.625 55.3889 204.681 57.9656 177.242C59.3055 162.931 60.7484 149.159 61.7791 137.645C63.5312 119.999 64.665 107.84 64.665 107.84L103.006 162.931L96.7189 221.466Z" fill="white"/>
<path d="M58.4844 172.937C58.8966 167.557 59.412 162.069 59.8242 156.689L61.3703 140.441L63.0193 124.193C63.5347 118.813 64.1531 113.433 64.7715 107.945C64.3592 113.325 63.8439 118.813 63.3285 124.193L61.7825 140.441L60.1335 156.689C59.7212 162.069 59.1028 167.557 58.4844 172.937Z" fill="#2B2B2B"/>
<path d="M80.5419 23.1573C77.2437 18.7457 76.3161 6.69424 84.1492 5.29542C87.7566 4.327 89.3026 7.87786 92.6007 5.29542C95.8989 2.71297 99.3001 6.58664 100.125 8.09307C101.052 9.49189 104.144 9.9223 106.309 8.09307C108.576 6.26384 110.741 10.8907 111.668 12.5047C112.596 14.1188 111.874 9.27669 114.966 11.3211C118.058 13.3656 124.758 22.9421 115.894 36.1772C106.515 43.8169 97.9602 44.5701 97.9602 44.5701L89.4057 36.9304L80.5419 23.1573Z" fill="#1A1C1C"/>
<path d="M80.5379 23.1602C80.5379 23.1602 77.0336 56.4091 92.6998 56.4091C104.656 56.4091 109.912 46.8326 110.118 43.3893C115.478 41.8829 118.157 33.0595 113.313 31.6607C110.015 30.4771 108.16 35.5344 108.16 35.5344C108.16 35.5344 106.511 31.1227 106.305 25.8502C102.285 27.249 83.5269 28.2174 80.5379 23.1602Z" fill="#F9BF9C"/>
<path d="M110.118 43.4961C110.118 43.4961 110.118 50.3826 110.118 54.0411C110.118 57.6995 110.839 61.4656 115.889 62.1112C113.107 68.7825 96.1006 123.982 96.1006 123.982L91.1534 86.7521L86 73.0866L86.8245 64.3709C86.8245 64.3709 92.4932 63.4024 93.2147 59.9592C93.9362 56.5159 93.4208 52.6423 93.4208 52.6423L110.118 43.4961Z" fill="#F9BF9C"/>
<path d="M90.0241 75.0234C90.0241 75.0234 94.2499 82.7708 107.855 75.0234C111.565 84.4924 109.916 92.993 109.916 92.993L107.339 96.5438C107.339 96.5438 95.4867 108.057 91.6732 99.4491C87.9628 91.1637 83.737 101.278 87.9628 91.1637C93.0131 79.3275 88.5812 80.0807 88.5812 80.0807L90.0241 75.0234Z" fill="#58ACF5"/>
<path d="M112.803 61.0312C112.803 61.0312 95.2817 88.8999 95.2817 109.667C95.2817 117.414 95.3848 117.199 96.5186 125.377C98.786 143.131 94.7664 169.923 94.9725 195.102C95.1787 219.527 96.3124 242.662 98.2707 255.251C128.676 258.586 146.3 257.295 160.008 252.776C158.977 221.572 156.607 161.53 153.412 141.517C150.217 121.503 112.803 61.0312 112.803 61.0312Z" fill="white"/>
<path d="M147.332 211.138C147.229 210.062 146.92 206.296 146.92 206.296L146.302 204.682L144.344 203.283C144.55 202.637 141.148 198.871 141.148 198.871L134.346 204.359C134.346 204.359 124.039 219.961 125.482 224.05C126.204 226.094 130.842 221.145 131.666 219.1C131.563 223.297 126.41 232.228 126.719 234.81C126.925 236.532 128.471 236.855 130.842 234.165C129.708 236.962 133.831 236.101 135.377 233.304C134.861 235.456 137.953 234.38 139.293 232.12C139.602 232.335 139.912 232.443 140.736 232.228C143.519 231.367 148.466 221.79 147.332 211.138Z" fill="#F9BF9C"/>
<g opacity="0.5">
<path d="M130.844 234.061C131.874 231.802 132.905 229.65 133.936 227.498C134.863 225.238 135.791 222.978 136.409 220.719C136.306 223.194 135.482 225.561 134.554 227.82C133.627 230.08 132.39 232.232 130.844 234.061Z" fill="#F9BF9C"/>
</g>
<g opacity="0.5">
<path d="M135.375 233.304C135.89 232.336 136.303 231.475 136.715 230.507C137.127 229.538 137.539 228.677 137.952 227.709C138.776 225.772 139.395 223.943 140.116 221.898C140.013 223.943 139.395 225.987 138.57 227.924C137.746 229.969 136.818 231.798 135.375 233.304Z" fill="#F9BF9C"/>
</g>
<g opacity="0.5">
<path d="M139.293 232.123C140.014 230.509 140.839 229.003 141.457 227.389C142.179 225.775 142.797 224.269 143.313 222.547C143.313 224.376 142.797 226.098 142.076 227.712C141.354 229.326 140.53 230.832 139.293 232.123Z" fill="#F9BF9C"/>
</g>
<path d="M112.801 61.0312C112.801 61.0312 144.03 70.2849 147.844 75.0194C151.657 79.7538 170.312 131.079 169.797 133.016C169.385 134.953 174.538 157.442 174.538 157.442C174.538 157.442 157.429 214.363 155.574 217.375C147.637 215.439 127.436 206.4 127.436 206.4C127.436 206.4 142.484 155.612 142.999 149.91C143.515 144.207 130.013 116.984 130.013 116.984" fill="white"/>
<path d="M172.888 160.456C170.209 170.032 167.529 179.609 164.746 189.185L160.52 203.496L158.356 210.598L157.222 214.149C156.81 215.333 156.501 216.516 155.882 217.7L155.779 217.915L155.573 217.807C153.099 217.162 150.729 216.301 148.358 215.44C145.988 214.579 143.617 213.611 141.247 212.75C136.609 210.813 131.868 208.876 127.333 206.832L127.023 206.724L127.127 206.402L133.723 183.805C135.887 176.273 138.052 168.741 140.113 161.101L141.659 155.398C141.865 154.43 142.174 153.461 142.38 152.493C142.587 151.525 142.793 150.556 142.896 149.588C142.896 147.651 142.174 145.822 141.659 143.885C141.041 142.056 140.319 140.226 139.598 138.397C136.712 131.08 133.414 123.978 130.115 116.984C133.62 123.978 137.021 130.973 140.01 138.29C140.731 140.119 141.453 141.948 142.071 143.777C142.69 145.606 143.308 147.543 143.411 149.588C143.411 150.664 143.102 151.525 142.896 152.493C142.69 153.461 142.484 154.43 142.174 155.398L140.731 161.101C138.67 168.741 136.609 176.273 134.444 183.805C132.28 191.337 130.115 198.869 127.951 206.402L127.745 205.971C132.383 208.016 137.021 210.06 141.659 211.889C144.03 212.858 146.297 213.718 148.668 214.687C151.038 215.548 153.409 216.409 155.779 217.054L155.47 217.162C155.985 216.193 156.398 214.902 156.81 213.718L157.944 210.168L160.211 203.066L164.54 188.755L172.888 160.456Z" fill="#2B2B2B"/>
<path d="M147.741 75.0195C146.607 75.6651 145.577 76.3108 144.546 77.064C143.515 77.8172 142.485 78.5704 141.66 79.4312C140.733 80.292 139.908 81.2604 139.187 82.3365C138.465 83.4125 137.95 84.5961 137.641 85.8873C137.744 84.5961 138.156 83.3049 138.877 82.1213C139.496 80.9376 140.423 79.9692 141.351 79.0008C142.279 78.14 143.309 77.2792 144.443 76.6336C145.474 76.0956 146.607 75.4499 147.741 75.0195Z" fill="#2B2B2B"/>
<path d="M95.3867 148.081C99.3033 118.275 120.432 96.6472 120.432 96.6472L115.897 84.9186L127.441 78.6777L122.493 64.1514L110.538 57.6953C110.538 57.6953 110.95 59.955 112.805 61.031C112.805 61.031 112.805 68.0251 100.952 96.432C98.2726 111.927 95.4898 130.865 95.3867 148.081Z" fill="white"/>
<path d="M113.621 64.8008C122.794 72.9785 124.958 90.0872 118.362 100.202" stroke="#2B2B2B" stroke-miterlimit="10"/>
<path d="M114.241 95.897C112.592 98.4794 113.21 102.03 115.684 103.752C118.157 105.474 121.558 104.828 123.208 102.245C124.857 99.6631 124.238 96.1122 121.765 94.3906C119.291 92.6689 115.89 93.3145 114.241 95.897Z" fill="#2C96E5"/>
<path d="M116.61 97.5117C116.197 98.9105 116.713 100.202 117.64 100.847C118.568 101.493 119.908 101.493 121.042 100.525C120.835 101.278 120.217 101.816 119.393 102.139C118.671 102.354 117.743 102.246 117.022 101.708C116.3 101.17 115.888 100.417 115.785 99.5562C115.682 98.9105 115.991 98.0497 116.61 97.5117Z" fill="white"/>
<path d="M90.5368 62.8613C90.5368 62.8613 94.6594 83.6284 94.8656 108.915C95.8962 126.239 95.2778 152.924 95.2778 152.924C95.2778 152.924 91.0521 101.598 80.6423 93.8506C84.765 88.0401 72.5 81.7992 72.5 81.7992L77.035 75.9887L80.5392 66.6273L93.3196 58.2344C93.1134 60.8168 92.5981 61.6776 90.5368 62.8613Z" fill="white"/>
<path d="M85.2814 68.9922C83.22 75.2331 81.4679 73.6191 79.9219 94.4938" stroke="#2B2B2B" stroke-miterlimit="10"/>
<path d="M95.6875 101.059C95.3783 107.515 95.2752 113.863 95.2752 120.319L95.1721 139.58C95.1721 152.384 95.1721 165.296 95.2752 178.101C95.3783 190.905 95.3783 203.817 95.7905 216.622C95.9967 223.078 96.2028 229.426 96.512 235.882C96.8212 242.339 97.3365 248.687 98.1611 255.035C97.5427 251.915 97.2335 248.687 96.8212 245.459C96.512 242.231 96.2028 239.111 95.8936 235.882C95.3783 229.426 95.0691 223.078 94.8629 216.622C94.4507 203.817 94.2445 190.905 94.2445 178.101C94.2445 165.296 94.1414 152.384 94.3476 139.58C94.5537 126.775 94.7599 113.971 95.6875 101.059Z" fill="#2B2B2B"/>
<path d="M92.9105 99.6632C92.9105 99.6632 83.2222 87.289 78.1719 79.6493C82.2946 76.744 87.4479 72.44 87.4479 72.44L80.6455 66.5219L93.4258 58.1289L84.1498 65.8762L87.9633 71.6867L87.4479 75.0224L83.6344 79.5417L93.8381 92.9919" fill="white"/>
<path d="M95.2773 109.667C100.018 100.628 123.93 80.5069 123.93 80.5069L114.86 72.9748L124.651 64.797L110.634 57.6953L113.417 60.2778V63.6134L110.428 67.5947C110.428 67.5947 111.356 68.3479 110.119 71.576C108.779 74.6964 105.996 80.6145 105.996 80.6145L100.121 88.2543" fill="white"/>
<path d="M95.2773 109.671C96.9264 106.658 99.1939 104.075 101.461 101.493C103.729 98.9106 106.202 96.5434 108.573 94.1761C113.52 89.4416 118.571 84.8147 123.724 80.4031V80.7259C120.632 78.251 117.643 75.6686 114.654 73.1937L114.448 72.9785L114.654 72.7633C116.303 71.3645 117.952 70.0733 119.601 68.7821C121.25 67.4908 122.899 66.092 124.548 64.8008C123.002 66.1996 121.353 67.5984 119.807 68.9973C118.158 70.3961 116.612 71.7949 114.963 73.0861V72.7633C118.055 75.2382 121.044 77.8206 124.033 80.2955L124.239 80.5107L124.033 80.7259C118.88 85.1375 113.726 89.6568 108.779 94.3913C106.306 96.7586 103.935 99.1258 101.564 101.601C99.297 104.075 96.9264 106.658 95.2773 109.671Z" fill="#2B2B2B"/>
<path d="M95.2753 109.671C92.5956 104.507 89.9158 99.4493 87.03 94.4996C85.587 92.0247 84.1441 89.5499 82.7011 87.075C81.1551 84.6002 79.7122 82.233 77.96 79.9733L77.7539 79.7581L77.96 79.6505C81.1551 77.3909 84.1441 74.916 87.2361 72.4412V72.8716C86.1023 71.9032 84.9686 70.8272 83.8349 69.8587C82.7011 68.7827 81.6705 67.8143 80.5367 66.7383C81.7735 67.7067 82.9073 68.5675 84.041 69.5359C85.1747 70.5044 86.3085 71.4728 87.4422 72.4412L87.6484 72.6564H87.5453C84.5563 75.1312 81.4643 77.6061 78.2692 79.8657V79.5429C80.0214 81.8025 81.5674 84.2774 83.0103 86.7522C84.4533 89.2271 85.8962 91.7019 87.2361 94.2844C90.122 99.3417 92.6986 104.507 95.2753 109.671Z" fill="#2B2B2B"/>
<path d="M143 150.021C144.443 148.837 146.298 148.191 148.153 148.191C149.081 148.191 150.009 148.299 150.833 148.622C151.761 148.945 152.482 149.375 153.204 149.913C152.379 149.59 151.452 149.375 150.627 149.16C149.802 148.945 148.875 148.945 148.05 148.945C147.226 148.945 146.298 149.052 145.474 149.16C144.649 149.483 143.825 149.698 143 150.021Z" fill="#2B2B2B"/>
<path d="M143 147.867C143.721 146.361 144.958 145.177 146.401 144.424C147.123 144.101 147.947 143.886 148.772 143.779C149.596 143.671 150.421 143.886 151.142 144.101C150.318 144.209 149.596 144.209 148.875 144.424C148.153 144.639 147.432 144.855 146.813 145.177C146.092 145.5 145.474 145.931 144.855 146.361C144.134 146.791 143.515 147.329 143 147.867Z" fill="#2B2B2B"/>
<path d="M82.3952 124.837C86.4148 125.268 87.5486 123.116 87.8578 120.748C87.8578 120.748 93.1142 96.2152 81.0553 94.4935C72.913 93.3099 69.4087 98.0444 66.729 117.843C66.0075 123.008 70.1302 123.654 70.6456 123.654" stroke="#2B2B2B" stroke-width="1.5" stroke-miterlimit="10"/>
<path d="M79.3047 124.301C79.2016 125.592 80.1292 126.668 81.366 126.776C82.6028 126.883 83.6335 125.915 83.7366 124.624C83.8397 123.332 82.9121 122.256 81.6752 122.149C80.4384 122.041 79.3047 123.01 79.3047 124.301Z" fill="#2C96E5"/>
<path d="M69.7149 123.652C69.6118 124.944 70.5394 126.02 71.7762 126.127C73.013 126.235 74.0437 125.266 74.1467 123.975C74.2498 122.684 73.3222 121.608 72.0854 121.5C70.9517 121.393 69.8179 122.361 69.7149 123.652Z" fill="#2C96E5"/>
<g opacity="0.5">
<path d="M93.5273 56.4012C95.1764 56.4012 96.7224 56.0783 98.1654 55.5403C99.6083 55.0023 101.051 54.3567 102.391 53.4959C102.7 53.2807 103.01 53.0655 103.319 52.8503C103.628 52.6351 103.937 52.4199 104.246 52.0971L105.174 51.3439C105.483 51.0211 105.689 50.8059 105.998 50.483C107.132 49.2994 108.06 48.0082 108.987 46.6094C108.678 47.3626 108.266 48.1158 107.854 48.869C107.338 49.5146 106.926 50.2678 106.411 50.9135C105.38 52.2047 104.143 53.3883 102.803 54.2491C101.464 55.2175 99.9175 55.8631 98.2684 56.1859C97.4439 56.4011 96.6194 56.5088 95.8979 56.6164C95.0733 56.6164 94.3519 56.6164 93.5273 56.4012Z" fill="#C88876"/>
</g>
<path d="M83.5273 28.5307C84.0427 27.9927 84.6611 27.5623 85.3826 27.4547C86.104 27.2395 86.9286 27.2395 87.65 27.5623C89.093 28.1003 90.1236 29.3915 90.4328 30.7903C89.5052 29.7143 88.5776 28.7459 87.3408 28.3155C86.104 27.8851 84.8672 28.1003 83.5273 28.5307Z" fill="#1A1C1C"/>
<g opacity="0.5">
<path d="M90.8465 33.2695C91.1557 34.2379 91.2587 35.2064 91.2587 36.2824C91.2587 36.8204 91.2587 37.2508 91.0526 37.7888C90.9495 38.3268 90.7434 38.8648 90.2281 39.2952C90.125 39.4028 89.9189 39.4028 89.8158 39.5104L89.6097 39.618C89.5066 39.7256 89.3005 39.8332 89.1974 39.9409C88.9913 40.2637 88.8882 40.6941 88.9913 41.0169C89.0943 41.8777 89.9189 42.4157 90.8465 42.5233C90.4342 42.6309 89.9189 42.6309 89.4035 42.4157C88.8882 42.2005 88.4759 41.7701 88.3729 41.2321C88.1667 40.6941 88.2698 40.0485 88.579 39.5104C88.6821 39.1876 88.9913 39.08 89.1974 38.8648C89.3005 38.7572 89.5066 38.7572 89.6097 38.6496C89.7127 38.6496 89.7127 38.542 89.8158 38.542C90.0219 38.3268 90.2281 38.004 90.3311 37.5736C90.4342 37.1432 90.5373 36.7128 90.6403 36.1748C90.7434 35.314 90.7434 34.3456 90.8465 33.2695Z" fill="#CE727D"/>
</g>
<path d="M95.0726 45.8605C94.145 46.1833 92.599 46.6137 90.4346 46.8289C89.7131 46.9365 89.4039 47.6897 89.7131 48.3353C90.8469 50.2721 92.0837 51.133 94.042 50.9177C95.8972 50.5949 96.5156 48.2277 96.2064 46.6137C96.1033 46.0757 95.588 45.7529 95.0726 45.8605Z" fill="#EF9385"/>
<path d="M94.0391 31.1141C94.3483 30.1456 95.2759 29.3924 96.2035 28.962C97.1311 28.5316 98.1617 28.3164 99.1924 28.3164C100.223 28.3164 101.254 28.6392 102.181 29.1772C103.109 29.7152 103.727 30.576 104.243 31.4369C102.8 30.038 101.151 29.1772 99.2955 29.1772C98.3679 29.1772 97.4403 29.2848 96.6157 29.6076C95.5851 29.9304 94.6575 30.3608 94.0391 31.1141Z" fill="#1A1C1C"/>
<path d="M96.0018 35.2059C95.7957 36.1743 96.311 37.2504 97.3417 37.4656C98.2693 37.6808 99.3 37.1428 99.5061 36.0667C99.7122 35.0983 99.1969 34.0223 98.1662 33.8071C97.2386 33.5919 96.208 34.2375 96.0018 35.2059Z" fill="#1A1C1C"/>
<path d="M94.7617 34.883C94.7617 34.2374 95.2771 33.5918 95.6893 33.1613C96.2047 32.7309 96.8231 32.4081 97.4415 32.3005C98.1629 32.1929 98.8844 32.3005 99.3997 32.7309C100.018 33.1613 100.327 33.6994 100.637 34.345C100.224 33.9146 99.7089 33.3765 99.1936 33.1613C98.6783 32.9461 98.0599 32.8385 97.5445 32.9461C96.9261 33.0537 96.4108 33.2689 95.8955 33.5918C95.4832 33.807 94.9679 34.2374 94.7617 34.883Z" fill="#1A1C1C"/>
<path d="M83.834 34.0227C83.731 34.9911 84.4524 35.852 85.38 35.9596C86.3076 36.0672 87.1322 35.3139 87.2352 34.3455C87.3383 33.3771 86.6168 32.5163 85.6892 32.4087C84.7616 32.3011 83.834 33.0543 83.834 34.0227Z" fill="#1A1C1C"/>
<path d="M83.9375 31.9814C84.1436 31.551 84.5559 31.3358 85.0712 31.2282C85.4835 31.1206 85.9988 31.2282 86.4111 31.3358C86.8234 31.551 87.2357 31.8738 87.4418 32.3042C87.6479 32.7346 87.751 33.165 87.751 33.703C87.5448 33.2726 87.4418 32.8422 87.1326 32.627C86.8234 32.3042 86.5142 32.089 86.205 31.9814C85.8958 31.7662 85.4835 31.7662 85.0712 31.7662C84.659 31.551 84.3498 31.6586 83.9375 31.9814Z" fill="#1A1C1C"/>
<path d="M185.457 434.73H217.305L216.48 423.539L216.377 422.355L201.536 423.539C201.432 423.862 200.196 425.584 200.299 426.014C191.126 425.476 186.075 431.502 185.457 434.73Z" fill="#2C96E5"/>
<path d="M200.199 426.012C200.199 426.012 202.261 426.657 202.261 428.702" stroke="#F9EFE5" stroke-width="0.5201" stroke-miterlimit="10" stroke-linecap="round" stroke-linejoin="round"/>
<path d="M196.59 426.012C196.59 426.012 198.651 426.657 198.651 428.702" stroke="#F9EFE5" stroke-width="0.5201" stroke-miterlimit="10" stroke-linecap="round" stroke-linejoin="round"/>
<path d="M217.306 433.547H185.664" stroke="#F9EFE5" stroke-width="0.5201" stroke-miterlimit="10" stroke-linecap="round" stroke-linejoin="round"/>
<path d="M216.893 428.922C216.893 428.922 212.358 429.029 212.152 433.441" stroke="#F9EFE5" stroke-width="0.5201" stroke-miterlimit="10" stroke-linecap="round" stroke-linejoin="round"/>
<path d="M282.34 434.294L313.569 427.946L310.683 417.078L310.374 415.895L296.048 420.091C295.945 420.414 295.12 422.351 295.223 422.781C286.256 424.072 282.443 430.959 282.34 434.294Z" fill="#2C96E5"/>
<path d="M295.332 422.781C295.332 422.781 297.496 422.996 297.909 424.933" stroke="#F9EFE5" stroke-width="0.5201" stroke-miterlimit="10" stroke-linecap="round" stroke-linejoin="round"/>
<path d="M291.723 423.539C291.723 423.539 293.887 423.754 294.299 425.691" stroke="#F9EFE5" stroke-width="0.5201" stroke-miterlimit="10" stroke-linecap="round" stroke-linejoin="round"/>
<path d="M313.469 426.766L282.445 433.114" stroke="#F9EFE5" stroke-width="0.5201" stroke-miterlimit="10" stroke-linecap="round" stroke-linejoin="round"/>
<path d="M312.228 422.355C312.228 422.355 307.796 423.324 308.415 427.736" stroke="#F9EFE5" stroke-width="0.5201" stroke-miterlimit="10" stroke-linecap="round" stroke-linejoin="round"/>
<path d="M260.494 59.8559C259.463 59.5331 258.432 59.2103 257.402 58.8875C253.691 57.5963 250.702 56.3051 248.435 55.0138C244.003 52.6466 242.045 50.7098 242.045 50.7098L239.468 47.8045L236.067 46.5133L232.872 45.3297C232.872 45.3297 228.234 43.8232 228.955 36.8291C229.161 34.3543 229.986 30.8034 231.635 27.3601C234.727 21.1192 241.117 15.3087 253.485 17.4608C254.928 17.676 256.371 17.9988 257.608 18.4292C258.535 18.752 259.36 19.0748 260.184 19.3976C267.915 22.9485 271.625 30.1578 273.171 36.0759C275.232 43.2852 273.48 63.622 260.494 59.8559Z" fill="#1A1C1C"/>
<path d="M260.493 59.8525C259.462 59.5297 258.431 59.2069 257.401 58.8841C253.69 57.5929 250.701 56.3017 248.434 55.0104L241.425 43.497L239.055 34.8889C239.055 34.8889 250.907 45.7567 261.008 40.6994C265.028 39.0853 269.15 26.3883 256.988 18.4258C258.122 18.7486 259.256 19.0714 260.287 19.3942C268.017 22.9451 271.727 30.1544 273.273 36.0725C275.231 43.2818 273.479 63.6186 260.493 59.8525Z" fill="#1A1C1C"/>
<path d="M239.157 34.7821L237.817 41.6687L236.374 46.2955L236.168 46.4031L232.973 45.2195C232.973 45.2195 228.335 43.7131 229.057 36.719C229.263 34.2441 230.087 30.6933 231.736 27.25C224.522 46.4031 239.157 34.7821 239.157 34.7821Z" fill="#1A1C1C"/>
<path d="M222.36 167.133C222.36 167.133 207.106 277.101 205.457 300.02C203.911 322.939 200.098 423.331 200.098 423.331C200.098 423.331 210.198 425.483 217.104 423.331C224.525 389.544 236.48 341.231 235.862 306.799C237.305 292.918 255.136 229.326 255.136 229.326L259.67 209.097L255.96 196.938L253.383 167.24H222.36V167.133Z" fill="#1A1C1C"/>
<path d="M232.979 45.2186C232.979 45.2186 231.021 69.5367 247.924 69.5367C253.078 69.5367 259.468 64.4794 260.498 59.7449C263.9 59.8525 267.713 54.2572 265.136 49.8455C263.178 46.5099 259.468 49.7379 259.262 50.7063C257.406 49.5227 247.409 47.3707 239.163 34.7812C237.617 38.3321 232.979 45.2186 232.979 45.2186Z" fill="#F9BF9C"/>
<path d="M260.704 19.394L257.097 18.318L253.695 17.3496C253.695 17.3496 245.862 15.3051 248.027 7.77301C250.191 0.240879 258.746 -0.189529 263.281 1.74731C263.59 1.85491 264.002 2.07011 264.311 2.28532C264.311 2.28532 264.311 2.28532 264.414 2.28532C269.568 5.83618 276.061 17.4572 260.704 19.394Z" fill="#1A1C1C"/>
<path d="M247.816 225.989C247.816 225.989 256.165 283.986 261.937 303.461C267.708 322.937 293.784 420.531 293.784 420.531C293.784 420.531 305.328 418.056 310.687 415.797C307.595 395.245 304.813 330.146 294.3 301.847C290.692 292.917 294.3 244.604 294.3 244.604L277.087 163.473L252.454 181.012L247.816 225.989Z" fill="#1A1C1C"/>
<path d="M217.409 176.712C217.409 176.712 245.752 190.054 281.62 176.281C296.049 140.02 282.444 125.278 282.444 125.278L287.701 103.651L282.444 83.2064L259.873 76.5352H249.36L234.106 80.3012L223.593 122.481L216.688 154.008L217.409 176.712Z" fill="#58ACF5"/>
<path d="M264.31 73.8398C264.31 73.8398 258.332 112.684 259.672 142.166C261.012 171.649 263.177 257.837 269.051 263.971C274.926 270.104 319.142 262.464 332.232 243.526C323.162 224.804 303.27 154.648 297.395 124.95C291.726 96.6512 264.31 73.8398 264.31 73.8398Z" fill="white"/>
<path d="M260.496 59.8516C260.496 59.8516 258.95 73.1942 264.309 73.8398C266.68 78.6819 257.197 90.0877 247.2 88.1509C243.18 86.752 241.531 82.5556 241.531 78.6819C241.531 76.8527 242.15 75.131 243.49 73.8398C244.726 72.5486 245.345 70.1813 245.242 67.5989C245.036 64.586 260.496 59.8516 260.496 59.8516Z" fill="#F9BF9C"/>
<path d="M241.53 78.7914C229.677 153.466 232.254 185.209 234.212 266.878C235.036 271.182 200.303 269.03 191.336 260.744C193.5 235.566 214.938 88.2602 219.37 86.3234C229.368 82.127 242.457 72.6581 241.53 78.7914Z" fill="white"/>
<path d="M274.095 216.414C274.404 220.18 274.714 224.054 275.332 227.82C275.641 229.649 275.95 231.586 276.775 233.2C276.981 233.63 277.187 233.846 277.6 233.953C278.012 234.061 278.424 234.168 278.836 234.168C279.764 234.276 280.589 234.276 281.516 234.168C285.123 233.953 288.731 233.2 292.235 232.016C293.987 231.371 295.636 230.618 297.182 229.649C298.728 228.681 300.171 227.497 301.305 225.991C301.614 225.668 301.717 225.022 301.717 224.592C301.82 224.054 301.717 223.516 301.717 222.978C301.717 221.902 301.511 220.826 301.408 219.75C301.099 217.598 300.687 215.553 300.274 213.401C299.347 209.205 298.316 205.008 297.182 200.919L297.801 201.135C296.564 202.211 295.224 203.071 293.781 203.932C292.441 204.793 290.998 205.546 289.555 206.192C288.112 206.838 286.566 207.376 285.02 207.806C283.474 208.236 281.825 208.452 280.279 208.452L280.485 208.344C278.321 211.249 276.157 213.832 274.095 216.414ZM273.992 216.414C275.95 213.724 277.909 210.926 279.97 208.236L280.073 208.129H280.176C281.722 208.021 283.268 207.806 284.814 207.268C286.36 206.838 287.803 206.192 289.246 205.546C292.132 204.147 294.812 202.533 297.285 200.489L297.801 200.059L298.007 200.704C299.141 204.901 300.068 208.99 300.893 213.294C301.305 215.446 301.614 217.49 301.923 219.642C302.026 220.718 302.13 221.794 302.13 222.87C302.13 223.408 302.13 223.946 302.026 224.484C301.923 225.022 301.923 225.56 301.511 226.098C300.377 227.605 298.934 228.788 297.285 229.864C295.739 230.833 293.987 231.694 292.338 232.339C288.937 233.63 285.33 234.599 281.619 234.922C280.692 235.029 279.764 235.029 278.836 234.922C278.321 234.922 277.909 234.814 277.393 234.599C277.187 234.491 276.878 234.384 276.672 234.168C276.466 233.953 276.363 233.738 276.157 233.523C275.641 232.662 275.435 231.694 275.229 230.725C275.023 229.757 274.817 228.788 274.714 227.927C274.198 224.054 273.992 220.288 273.992 216.414Z" fill="#2B2B2B"/>
<path d="M309.861 189.302C309.037 191.454 296.05 184.675 292.855 181.77C289.66 178.865 298.215 170.149 298.215 170.149H300.998C300.998 170.041 311.82 184.03 309.861 189.302Z" fill="#1A1C1C"/>
<path d="M288.942 169.499C288.942 169.499 278.326 195.539 277.81 197.368C275.44 200.274 271.008 213.186 271.214 217.813C274.203 217.382 280.078 208.021 280.078 208.021C286.571 208.451 293.992 202.856 293.992 202.856L291.621 194.893L304.814 174.664C304.711 174.664 292.858 167.132 288.942 169.499Z" fill="#F9BF9C"/>
<path d="M264.41 71.6914C264.41 71.6914 278.84 76.8562 288.94 84.2807C304.091 95.4712 319.654 128.612 322.025 138.081C325.735 152.93 321.819 167.564 309.863 189.192C308.832 184.027 299.247 170.684 288.94 169.393C292.341 162.291 297.289 152.069 296.67 149.594C296.052 147.12 275.335 114.409 275.335 114.409L264.41 71.6914Z" fill="white"/>
<path d="M289.869 131.52C291.415 134.532 292.858 137.653 294.198 140.773C294.816 142.387 295.538 143.894 296.053 145.508C296.362 146.369 296.568 147.122 296.775 147.983C296.878 148.413 296.981 148.843 296.981 149.274C296.981 149.812 296.981 150.242 296.878 150.673C296.568 152.394 295.95 154.008 295.435 155.622C294.816 157.236 294.198 158.743 293.476 160.357C292.033 163.477 290.59 166.49 288.941 169.503C290.384 166.383 291.724 163.37 293.064 160.142C294.301 157.021 295.641 153.793 296.259 150.565C296.362 150.135 296.362 149.704 296.362 149.381C296.362 148.951 296.259 148.628 296.156 148.198C295.95 147.445 295.641 146.584 295.332 145.831C294.816 144.217 294.198 142.603 293.579 141.096C292.343 137.868 291.106 134.64 289.869 131.52Z" fill="#2B2B2B"/>
<path d="M296.461 149.378C297.182 148.84 298.007 148.301 298.831 147.871C299.656 147.441 300.481 147.118 301.408 146.795C302.336 146.472 303.16 146.365 304.088 146.257C305.016 146.149 305.943 146.257 306.768 146.472C305.84 146.365 304.912 146.365 304.088 146.472C303.16 146.58 302.336 146.903 301.511 147.225C299.862 147.979 298.316 148.947 296.976 150.023L296.461 149.378Z" fill="#2B2B2B"/>
<path d="M295.742 147.768C296.773 146.585 297.804 145.509 299.04 144.648C300.277 143.787 301.617 143.034 303.06 142.711C301.617 143.141 300.38 144.002 299.35 144.971C298.216 145.939 297.288 147.015 296.464 148.199L295.742 147.768Z" fill="#2B2B2B"/>
<path d="M267.605 81.375C267.605 81.375 274.202 94.2872 276.16 123.555" stroke="#2B2B2B" stroke-miterlimit="10"/>
<path d="M261.114 70.2891C261.114 70.2891 275.955 74.8083 277.81 89.8726C275.44 92.3475 269.462 96.9743 269.462 96.9743L278.12 106.121C278.12 106.121 259.052 126.672 260.083 149.484C260.083 149.484 259.052 109.456 262.144 91.8094C262.969 84.8153 263.69 79.22 264.103 76.3148C264.206 75.1311 263.793 73.9475 262.866 73.4095C261.938 72.7639 261.114 71.9031 261.114 70.2891Z" fill="white"/>
<path d="M261.115 70.2969C263.176 70.9425 265.238 72.0185 267.093 73.2021C268.948 74.3858 270.7 75.7846 272.246 77.5062C273.792 79.1202 275.132 81.0571 276.06 83.2091C277.09 85.2535 277.606 87.6208 278.018 89.8804V89.988L277.915 90.0956C276.575 91.3869 275.235 92.5705 273.792 93.7541C272.349 94.9377 271.009 96.1213 269.566 97.1974V96.6593L278.224 105.806L278.43 106.128L278.224 106.451C275.647 109.356 273.277 112.584 271.112 115.812C268.948 119.148 266.99 122.591 265.341 126.25C263.692 129.908 262.352 133.674 261.321 137.548C260.393 141.422 259.981 145.511 259.981 149.492C259.878 145.511 260.084 141.422 261.012 137.44C261.939 133.459 263.176 129.693 264.825 126.035C266.474 122.376 268.433 118.825 270.597 115.49C272.761 112.154 275.132 108.926 277.812 105.913V106.451L269.154 97.1974L268.845 96.8746L269.154 96.6593C270.597 95.5833 272.04 94.3997 273.38 93.2161C274.823 92.0325 276.163 90.8488 277.4 89.5576L277.296 89.8804C276.884 87.6208 276.472 85.3611 275.544 83.3167C274.617 81.2723 273.38 79.3354 271.937 77.7214C270.494 75.9998 268.742 74.601 266.887 73.3097C265.135 72.0185 263.176 71.0501 261.115 70.2969Z" fill="#2B2B2B"/>
<path d="M272.035 153.679C268.015 153.787 267.088 151.635 266.882 149.268C266.882 149.268 263.274 124.412 275.539 123.551C283.681 123.013 286.877 127.855 288.216 147.869C288.526 153.141 284.403 153.357 283.888 153.357" stroke="#2B2B2B" stroke-width="1.5" stroke-miterlimit="10"/>
<path d="M275.234 153.356C275.234 154.647 274.203 155.723 272.967 155.723C271.73 155.723 270.699 154.647 270.699 153.356C270.699 152.064 271.73 150.988 272.967 150.988C274.203 150.988 275.234 152.064 275.234 153.356Z" fill="#2C96E5"/>
<path d="M282.451 155.723C283.703 155.723 284.719 154.663 284.719 153.356C284.719 152.048 283.703 150.988 282.451 150.988C281.199 150.988 280.184 152.048 280.184 153.356C280.184 154.663 281.199 155.723 282.451 155.723Z" fill="#2C96E5"/>
<path d="M260.701 19.3917L257.094 18.3157C265.648 17.6701 267.607 12.0748 267.607 8.41633C267.607 5.08067 264.927 2.82103 264.412 2.39062C269.565 5.83389 276.058 17.4549 260.701 19.3917Z" fill="#1A1C1C"/>
<g opacity="0.5">
<path d="M245.141 69.3272C246.584 69.4348 248.027 69.3272 249.469 69.112C250.809 68.7892 252.252 68.3588 253.489 67.6056C254.107 67.2828 254.726 66.8524 255.241 66.422C255.55 66.2068 255.86 65.9916 256.066 65.7764C256.375 65.5612 256.581 65.2384 256.89 65.0232C257.406 64.5928 257.921 63.9471 258.436 63.4091C258.952 62.8711 259.364 62.2255 259.879 61.6875C259.57 62.3331 259.158 62.9787 258.746 63.7319C258.23 64.3775 257.921 65.0232 257.303 65.5612C256.272 66.7448 255.035 67.6056 253.798 68.4664C252.458 69.2196 251.015 69.65 249.573 69.8652C248.027 69.9728 246.584 69.8652 245.141 69.3272Z" fill="#CE727D"/>
</g>
<path d="M287.708 255.688C287.708 255.688 285.131 292.595 287.708 301.203C290.284 309.811 297.19 330.685 300.179 355.326C303.065 380.074 307.497 416.874 307.497 416.874" stroke="white" stroke-width="0.5" stroke-miterlimit="10"/>
<path d="M234.727 43.3808C235.139 42.8428 235.757 42.4124 236.479 42.0896C237.2 41.7668 237.922 41.7668 238.746 41.982C240.189 42.4124 241.323 43.596 241.838 44.9949C240.808 44.0264 239.777 43.1656 238.54 42.8428C237.303 42.52 236.066 42.8428 234.727 43.3808Z" fill="#1A1C1C"/>
<g opacity="0.5">
<path d="M242.461 47.5898C242.771 48.5583 243.08 49.5267 243.08 50.4951C243.08 51.0331 243.08 51.4635 243.08 52.0015C242.977 52.5395 242.874 53.0775 242.358 53.6155C242.255 53.7232 242.049 53.8308 241.946 53.8308L241.74 53.9384C241.637 54.046 241.431 54.1536 241.431 54.3688C241.225 54.6916 241.225 55.122 241.328 55.4448C241.534 56.3056 242.358 56.8436 243.286 56.736C242.874 56.9512 242.358 56.9512 241.843 56.8436C241.328 56.6284 240.915 56.198 240.709 55.66C240.503 55.122 240.503 54.4764 240.709 53.9384C240.812 53.6156 241.018 53.4003 241.328 53.1851C241.431 53.0775 241.637 53.0775 241.74 52.9699C241.843 52.9699 241.843 52.8623 241.946 52.8623C242.152 52.6471 242.358 52.2167 242.461 51.7863C242.564 51.3559 242.564 50.9255 242.668 50.3875C242.461 49.5267 242.461 48.5583 242.461 47.5898Z" fill="#CE727D"/>
</g>
<path d="M247.611 59.6338C246.787 59.9566 245.241 60.6022 243.076 61.0326C242.355 61.1402 242.046 62.0011 242.458 62.5391C243.695 64.3683 245.035 65.1215 246.993 64.6911C248.848 64.2607 249.261 61.7859 248.848 60.2794C248.745 59.7414 248.127 59.4186 247.611 59.6338Z" fill="#EF9385"/>
<path d="M245.449 45.1149C245.655 44.0388 246.583 43.2856 247.408 42.7476C248.335 42.2096 249.263 41.8868 250.293 41.8868C251.324 41.7792 252.355 41.9944 253.282 42.4248C254.21 42.8552 254.931 43.6084 255.447 44.4692C253.901 43.178 252.149 42.5324 250.293 42.64C249.366 42.7476 248.438 42.9628 247.614 43.2856C246.892 43.716 245.965 44.254 245.449 45.1149Z" fill="#1A1C1C"/>
<path d="M247.714 48.9851C247.611 50.0611 248.23 50.9219 249.26 51.1371C250.291 51.2447 251.115 50.5991 251.322 49.5231C251.425 48.447 250.806 47.5862 249.776 47.371C248.848 47.2634 247.92 47.909 247.714 48.9851Z" fill="#1A1C1C"/>
<path d="M246.477 48.7672C246.477 48.1216 246.889 47.476 247.301 46.938C247.713 46.4 248.332 46.0772 249.053 45.862C249.672 45.6468 250.496 45.7544 251.012 46.0772C251.63 46.4 252.042 46.938 252.351 47.476C251.836 47.0456 251.424 46.6152 250.805 46.4C250.29 46.1848 249.672 46.1848 249.053 46.2924C248.538 46.4 247.92 46.7228 247.507 47.1532C247.095 47.6912 246.683 48.1216 246.477 48.7672Z" fill="#1A1C1C"/>
<path d="M237.197 50.7092C238.165 50.7092 238.95 49.8903 238.95 48.88C238.95 47.8698 238.165 47.0508 237.197 47.0508C236.23 47.0508 235.445 47.8698 235.445 48.88C235.445 49.8903 236.23 50.7092 237.197 50.7092Z" fill="#1A1C1C"/>
<path d="M235.445 46.836C235.651 46.4056 236.064 46.0828 236.476 45.9752C236.888 45.8676 237.404 45.8676 237.816 45.9752C238.228 46.1904 238.64 46.4056 238.95 46.836C239.259 47.2665 239.362 47.6969 239.362 48.1273C239.156 47.6969 238.95 47.3741 238.64 47.0513C238.331 46.7284 238.022 46.5132 237.61 46.4056C237.197 46.298 236.888 46.1904 236.476 46.298C236.167 46.4056 235.755 46.5132 235.445 46.836Z" fill="#1A1C1C"/>
<path d="M190.405 190.484C191.848 195.541 207.411 183.167 213.802 179.078C211.019 175.419 204.216 173.375 204.216 173.375C204.216 173.375 198.135 175.527 194.528 179.616C191.127 183.274 189.89 188.547 190.405 190.484Z" fill="#2B2B2B"/>
<path d="M198.241 207.266C199.684 208.234 201.333 208.88 202.982 209.31C204.631 209.74 206.383 209.956 208.032 210.063C208.857 210.171 209.784 210.171 210.609 210.171L213.185 209.956C214.938 209.848 216.587 209.74 218.339 209.525H218.442V209.633C218.957 214.152 219.266 218.671 219.473 223.191C219.576 225.45 219.576 227.71 219.473 229.97C219.37 232.229 219.266 234.489 218.545 236.749C218.339 237.287 218.133 237.825 217.72 238.363C217.514 238.578 217.308 238.793 216.999 239.008C216.69 239.116 216.484 239.223 216.174 239.331C215.041 239.654 214.01 239.869 212.876 239.977C210.712 240.192 208.444 240.084 206.28 239.869C204.116 239.546 201.951 239.116 199.89 238.47C197.828 237.717 195.767 236.749 194.324 234.919H194.427C195.973 236.533 198.035 237.287 200.096 237.932C202.157 238.578 204.322 238.901 206.486 239.116C208.651 239.331 210.815 239.439 212.876 239.223C213.907 239.116 215.041 239.008 215.968 238.685C216.174 238.578 216.484 238.47 216.69 238.363C216.896 238.255 216.999 238.147 217.205 237.932C217.514 237.609 217.72 237.071 217.927 236.533C218.648 234.489 218.854 232.229 218.957 229.97C219.06 227.71 219.06 225.45 219.06 223.191C218.957 218.671 218.648 214.152 218.236 209.633L218.339 209.74C216.587 209.956 214.938 210.171 213.185 210.386L210.609 210.709C209.681 210.709 208.857 210.709 207.929 210.709C206.177 210.601 204.425 210.278 202.776 209.74C201.127 209.202 199.478 208.449 198.241 207.266Z" fill="#2B2B2B"/>
<path d="M207.624 168.529C207.624 168.529 213.087 197.904 213.808 199.733C216.385 202.531 219.786 213.184 218.24 219.747C215.251 219.532 212.159 210.493 212.159 210.493C205.666 211.354 198.245 207.265 198.245 207.265L201.234 198.55L191.34 172.51C191.34 172.51 203.502 166.484 207.624 168.529Z" fill="#F9BF9C"/>
<path d="M244.828 71.2578C203.292 75.1314 191.646 122.045 188.348 133.882C184.328 148.408 185.359 176.599 190.409 190.48C189.069 187.036 201.128 174.339 213.805 179.074C212.259 167.561 209.373 158.63 209.579 150.022" fill="white"/>
<path d="M213.807 178.969L210.921 164.55C210.509 162.183 210.097 159.708 209.788 157.233C209.581 154.758 209.375 152.283 209.581 149.809C209.685 152.283 209.994 154.651 210.303 157.126C210.715 159.493 211.127 161.968 211.643 164.335C212.055 166.702 212.57 169.177 212.88 171.544C213.292 174.127 213.601 176.601 213.807 178.969Z" fill="#2B2B2B"/>
<path d="M200.098 143.348C202.159 143.67 204.22 144.531 206.076 145.715C207.003 146.253 207.828 147.006 208.549 147.867C209.271 148.728 209.786 149.804 209.683 150.987C209.477 149.911 208.858 149.051 208.137 148.297C207.415 147.544 206.591 146.899 205.663 146.361C203.911 145.284 201.953 144.316 200.098 143.348Z" fill="#2B2B2B"/>
<path d="M204.836 138.508C206.382 139.476 207.619 140.983 208.546 142.597C208.959 143.458 209.268 144.318 209.474 145.287C209.68 146.255 209.68 147.224 209.577 148.084C209.371 147.116 209.165 146.255 208.856 145.394C208.546 144.534 208.237 143.673 207.825 142.919C207 141.521 205.97 140.014 204.836 138.508Z" fill="#2B2B2B"/>
<path d="M239.367 75.0234C227.308 76.4223 216.383 89.3345 216.383 101.601" stroke="#2B2B2B" stroke-miterlimit="10"/>
<path d="M216.795 106.23C219.811 106.23 222.257 103.677 222.257 100.527C222.257 97.3775 219.811 94.8242 216.795 94.8242C213.778 94.8242 211.332 97.3775 211.332 100.527C211.332 103.677 213.778 106.23 216.795 106.23Z" fill="#2C96E5"/>
<path d="M219.372 100.527C219.578 101.281 219.372 102.141 218.857 102.787C218.341 103.433 217.517 103.863 216.692 103.863C215.868 103.863 215.043 103.433 214.528 102.787C214.013 102.141 213.806 101.281 214.013 100.527C214.425 101.926 215.559 102.787 216.589 102.679C217.826 102.679 218.96 101.926 219.372 100.527Z" fill="white"/>
<path d="M244.828 71.2578C244.828 71.2578 231.635 71.6882 226.173 89.0121C229.78 91.7022 232.975 94.0694 232.975 94.0694L223.699 104.722C223.699 104.722 234.315 130.762 233.903 147.332C238.232 102.57 241.118 81.8028 241.942 76.7455C242.148 75.6695 242.664 74.7011 243.488 73.9479C244.003 73.5175 244.622 72.1186 244.828 71.2578Z" fill="white"/>
<path d="M244.828 71.2539C242.56 71.4691 240.499 72.2223 238.438 73.2983C236.479 74.3744 234.624 75.7732 233.078 77.3872C231.532 79.0012 230.192 80.8305 229.058 82.8749C227.925 84.9194 227.1 86.9638 226.379 89.2234L226.276 88.793C228.543 90.4071 230.811 92.1287 233.078 93.8503L233.387 94.0655L233.078 94.3883L223.802 105.041L223.905 104.611C225.245 108.054 226.482 111.497 227.615 114.94C228.749 118.384 229.78 121.934 230.707 125.485C231.635 129.036 232.46 132.695 232.975 136.245C233.49 139.904 233.903 143.562 233.799 147.221C233.799 143.562 233.387 139.904 232.666 136.245C232.047 132.587 231.12 129.036 230.192 125.485C229.265 121.934 228.131 118.491 226.997 114.94C225.863 111.497 224.627 108.054 223.287 104.611L223.184 104.395L223.39 104.18L232.666 93.5275V94.0655C230.398 92.3439 228.234 90.6223 225.863 89.0082L225.657 88.9006L225.76 88.6854C227.203 84.2737 229.471 80.0773 232.769 76.8492C234.418 75.2352 236.273 73.944 238.334 72.8679C240.396 72.0071 242.663 71.3615 244.828 71.2539Z" fill="#2B2B2B"/>
<path d="M213.293 116.449C213.087 118.924 212.778 121.399 212.469 123.874L211.438 131.298L210.304 138.723C210.098 139.906 209.892 141.198 209.789 142.381C209.583 143.565 209.48 144.856 209.377 146.04C209.17 143.565 209.48 141.09 209.686 138.508C209.892 136.033 210.304 133.558 210.613 131.083C211.026 128.608 211.335 126.133 211.85 123.659C212.262 121.291 212.675 118.924 213.293 116.449Z" fill="#2B2B2B"/>
</svg>
