<svg width="26" height="20" viewBox="0 0 26 20" fill="none" xmlns="http://www.w3.org/2000/svg">
<path d="M12.7141 11.1655C9.0963 11.1655 5.47846 11.1655 1.86062 11.1655C1.62143 11.1655 1.38223 11.1655 1.153 11.1156C0.405515 10.9462 -0.0629105 10.2685 0.00685502 9.47117C0.066654 8.62402 0.604845 8.05593 1.41213 7.99613C1.5716 7.98616 1.73106 7.98617 1.90049 7.98617C9.13617 7.98617 16.3619 7.98617 23.5976 7.98617C23.8368 7.98617 24.0759 7.9762 24.3052 8.02603C25.0527 8.17553 25.5311 8.85325 25.4812 9.66054C25.4314 10.5077 24.8932 11.0857 24.0959 11.1455C23.9265 11.1555 23.7471 11.1555 23.5776 11.1555C19.9399 11.1655 16.332 11.1655 12.7141 11.1655Z" fill="#242F9B"/>
<path d="M17.4964 19.1385C15.4134 19.1385 13.3204 19.1385 11.2374 19.1385C10.0514 19.1385 9.37366 18.3113 9.60289 17.1552C9.72248 16.5472 10.151 16.1087 10.769 15.9991C10.9583 15.9692 11.1676 15.9492 11.357 15.9492C15.4532 15.9492 19.5594 15.9492 23.6557 15.9492C23.9148 15.9492 24.1839 15.9692 24.433 16.0389C25.1606 16.2482 25.5692 16.9658 25.4596 17.7731C25.34 18.6103 24.7918 19.1186 23.9546 19.1385C22.7288 19.1584 21.4929 19.1485 20.267 19.1485C19.3302 19.1385 18.4133 19.1385 17.4964 19.1385Z" fill="#242F9B"/>
<path d="M17.5278 0.00249162C19.6108 0.00249162 21.7037 0.00249162 23.7867 0.00249162C24.9827 0.00249162 25.6804 0.85961 25.4113 2.02569C25.2717 2.62368 24.893 3.00241 24.285 3.13197C24.0658 3.1818 23.8366 3.19177 23.6173 3.19177C19.541 3.19177 15.4647 3.19177 11.3884 3.19177C11.1193 3.19177 10.8402 3.17184 10.5811 3.10207C9.86352 2.89278 9.45489 2.17519 9.56452 1.3679C9.68412 0.540682 10.2422 0.0224246 11.0794 0.0124581C12.4548 -0.00747487 13.8402 0.00249162 15.2155 0.00249162C15.9829 0.00249162 16.7603 0.00249162 17.5278 0.00249162Z" fill="#242F9B"/>
</svg>
