<svg width="20" height="20" viewBox="0 0 20 20" fill="none" xmlns="http://www.w3.org/2000/svg">
<path d="M19.4458 16.9761L15.3207 12.8511C16.173 11.5665 16.6719 10.0284 16.6719 8.375C16.6719 3.89488 13.027 0.25 8.54688 0.25C4.06675 0.25 0.421875 3.89488 0.421875 8.375C0.421875 12.8551 4.06675 16.5 8.54688 16.5C10.2003 16.5 11.7384 16.0011 13.0229 15.1488L17.148 19.2739C17.7818 19.9084 18.812 19.9084 19.4458 19.2739C20.0803 18.6393 20.0803 17.6107 19.4458 16.9761ZM2.85938 8.375C2.85938 5.23875 5.41063 2.6875 8.54688 2.6875C11.6831 2.6875 14.2344 5.23875 14.2344 8.375C14.2344 11.5113 11.6831 14.0625 8.54688 14.0625C5.41063 14.0625 2.85938 11.5113 2.85938 8.375Z" fill="#94A1D1"/>
</svg>
